<?xml version="1.0" encoding="iso-8859-1"?>
<!-- Generator: Adobe Illustrator 19.1.0, SVG Export Plug-In . SVG Version: 6.00 Build 0)  -->
<svg xmlns="http://www.w3.org/2000/svg" xmlns:xlink="http://www.w3.org/1999/xlink" version="1.1" id="Capa_1" x="0px" y="0px" viewBox="0 0 48 48" style="enable-background:new 0 0 48 48;" xml:space="preserve" width="512px" height="512px">
<g>
	<g>
		<path d="M9.295,28.562c-5.066,0-9.188-4.122-9.188-9.188s4.122-9.188,9.188-9.188c0.527,0,1.054,0.046,1.575,0.138    C12.389,4.283,17.806,0,24.128,0C30.9,0,36.594,4.971,37.632,11.538c0.694-0.191,1.408-0.288,2.135-0.288    c4.48,0,8.125,3.645,8.125,8.125S44.248,27.5,39.767,27.5c-2.668,0-5.159-1.336-6.663-3.491c-2.491,2.18-5.633,3.366-8.976,3.366    c-2.746,0-5.358-0.801-7.617-2.324C14.776,27.268,12.149,28.562,9.295,28.562z M9.295,12.188c-3.963,0-7.188,3.224-7.188,7.188    s3.224,7.188,7.188,7.188c2.515,0,4.806-1.288,6.127-3.445l0.588-0.961l0.884,0.699c2.086,1.648,4.587,2.52,7.233,2.52    c3.229,0,6.238-1.298,8.474-3.655l1.006-1.06l0.624,1.322c1.009,2.137,3.182,3.519,5.535,3.519c3.377,0,6.125-2.748,6.125-6.125    s-2.748-6.125-6.125-6.125c-0.888,0-1.752,0.192-2.569,0.572l-1.331,0.617l-0.088-1.464C35.407,6.821,30.29,2,24.128,2    c-5.702,0-10.541,4.08-11.506,9.701l-0.19,1.111l-1.081-0.322C10.678,12.289,9.986,12.188,9.295,12.188z" fill="#ff5c5c"/>
	</g>
	<g>
		<path d="M37.643,48H10.364L6.476,27.685c-0.103-0.542,0.252-1.066,0.794-1.17c0.544-0.101,1.067,0.252,1.17,0.795L12.018,46    h23.971l3.748-19.582c0.104-0.542,0.62-0.895,1.171-0.794c0.542,0.104,0.897,0.628,0.794,1.171L37.643,48z" fill="#ff5c5c"/>
	</g>
	<g>
		<path d="M24.089,48c-0.552,0-1-0.447-1-1V33.908c0-0.553,0.448-1,1-1c0.552,0,1,0.447,1,1V47C25.089,47.553,24.641,48,24.089,48z" fill="#ff5c5c"/>
	</g>
	<g>
		<path d="M17.315,48c-0.514,0-0.951-0.394-0.996-0.915l-1.11-13.092c-0.046-0.551,0.362-1.035,0.912-1.081    c0.549-0.058,1.034,0.36,1.081,0.911l1.11,13.092c0.046,0.551-0.362,1.035-0.912,1.081C17.372,47.999,17.343,48,17.315,48z" fill="#ff5c5c"/>
	</g>
	<g>
		<path d="M30.775,48c-0.041,0-0.082-0.002-0.124-0.008c-0.549-0.068-0.938-0.567-0.869-1.115l1.627-13.092    c0.067-0.549,0.565-0.944,1.115-0.869c0.549,0.068,0.938,0.567,0.869,1.115l-1.627,13.092C31.704,47.63,31.272,48,30.775,48z" fill="#ff5c5c"/>
	</g>
	<g>
		<path d="M16.761,13.974c-0.552,0-1-0.448-1-1c0-4.432,3.606-8.038,8.038-8.038c0.552,0,1,0.448,1,1c0,0.552-0.448,1-1,1    c-3.33,0-6.038,2.708-6.038,6.038C17.761,13.526,17.313,13.974,16.761,13.974z" fill="#ff5c5c"/>
	</g>
</g>
<g>
</g>
<g>
</g>
<g>
</g>
<g>
</g>
<g>
</g>
<g>
</g>
<g>
</g>
<g>
</g>
<g>
</g>
<g>
</g>
<g>
</g>
<g>
</g>
<g>
</g>
<g>
</g>
<g>
</g>
</svg>
