<?xml version="1.0" encoding="iso-8859-1"?>
<!-- Generator: Adobe Illustrator 19.0.0, SVG Export Plug-In . SVG Version: 6.00 Build 0)  -->
<svg xmlns="http://www.w3.org/2000/svg" xmlns:xlink="http://www.w3.org/1999/xlink" version="1.1" id="Capa_1" x="0px" y="0px" viewBox="0 0 511.998 511.998" style="enable-background:new 0 0 511.998 511.998;" xml:space="preserve" width="512px" height="512px">
<g>
	<g>
		<path d="M361.085,191.368h-38.904c22.439-29.676,20.157-72.219-6.881-99.257c-11.353-11.353-25.444-18.326-40.165-20.956    c0.543-22.714,19.177-41.029,42.02-41.029h25.168V0h-25.168c-39.677,0-71.973,32.187-72.164,71.822    c-13.523,3.037-26.372,9.787-36.876,20.291c-27.037,27.037-29.32,69.581-6.881,99.257h-50.319c-30.433,0-55.19,24.758-55.19,55.19    v35.429c15.315,1.276,24.31,7.785,31.047,12.684c6.139,4.464,9.845,7.159,18.755,7.159c8.909,0,12.616-2.695,18.757-7.161    c7.498-5.454,17.768-12.923,36.475-12.923c18.706,0,28.977,7.469,36.476,12.923c6.141,4.466,9.847,7.161,18.758,7.161    c8.909,0,12.616-2.695,18.757-7.161c7.499-5.454,17.768-12.923,36.475-12.923c18.707,0,28.978,7.469,36.478,12.922    c6.142,4.466,9.849,7.162,18.762,7.162s12.619-2.696,18.762-7.162c6.736-4.9,15.733-11.407,31.05-12.683v-35.429    C416.276,216.126,391.518,191.368,361.085,191.368z" fill="#ff5c5c"/>
	</g>
</g>
<g>
	<g>
		<path d="M402.943,319.036c-7.5,5.454-17.771,12.922-36.479,12.922s-28.978-7.469-36.479-12.922    c-6.141-4.466-9.848-7.162-18.761-7.162c-8.909,0-12.616,2.695-18.757,7.161c-7.499,5.454-17.768,12.923-36.475,12.923    c-18.706,0-28.976-7.469-36.476-12.923c-6.141-4.466-9.847-7.161-18.758-7.161c-8.909,0-12.616,2.695-18.757,7.161    c-7.498,5.454-17.768,12.923-36.475,12.923c-18.705,0-28.975-7.469-36.474-12.923c-4.721-3.433-8.013-5.814-13.327-6.734v54.004    h320.549V312.3C410.957,313.22,407.666,315.602,402.943,319.036z" fill="#ff5c5c"/>
	</g>
</g>
<g>
	<g>
		<rect x="95.722" y="396.432" width="320.544" height="36.696" fill="#ff5c5c"/>
	</g>
</g>
<g>
	<g>
		<rect x="95.722" y="463.252" width="320.544" height="48.746" fill="#ff5c5c"/>
	</g>
</g>
<g>
</g>
<g>
</g>
<g>
</g>
<g>
</g>
<g>
</g>
<g>
</g>
<g>
</g>
<g>
</g>
<g>
</g>
<g>
</g>
<g>
</g>
<g>
</g>
<g>
</g>
<g>
</g>
<g>
</g>
</svg>
