<?xml version="1.0" encoding="iso-8859-1"?>
<!-- Generator: Adobe Illustrator 19.0.0, SVG Export Plug-In . SVG Version: 6.00 Build 0)  -->
<svg version="1.1" id="Capa_1" xmlns="http://www.w3.org/2000/svg" xmlns:xlink="http://www.w3.org/1999/xlink" x="0px" y="0px"
	 viewBox="0 0 512 512" style="enable-background:new 0 0 512 512;" xml:space="preserve">
<path style="fill:#EAEAF1;" d="M340.52,20.355H37.572c-16.7,0-30.238,13.538-30.238,30.238v410.813
	c0,16.7,13.538,30.238,30.238,30.238h302.949c16.7,0,30.238-13.538,30.238-30.238V50.594
	C370.758,33.893,357.22,20.355,340.52,20.355z"/>
<path style="fill:#FD6064;" d="M189.046,79.662c-82.809-80.93-219.403,47.692-10.953,163.666c6.805,3.786,15.101,3.786,21.906,0
	C408.45,127.354,271.856-1.268,189.046,79.662z"/>
<path style="fill:#F0484A;" d="M146.688,55.982C71.292,39.681,3.082,145.959,178.093,243.328c3.09,1.719,6.487,2.649,9.913,2.807
	C60.023,158.984,89.973,69.218,146.688,55.982z"/>
<path style="fill:#FFE17C;" d="M194.663,322.108c0,0-5.222,22.438-55.467,27.75c0,0-3.235,58.019-31.726,86.51l26.169,26.169
	c28.491-28.491,86.51-31.726,86.51-31.726c5.312-50.245,27.75-55.467,27.75-55.467l-15.435-37.795L194.663,322.108z"/>
<polygon style="fill:#FFBA40;" points="473.84,96.17 430.226,78.112 407.868,100.47 416.147,153.864 469.536,162.138 
	491.895,139.78 "/>
<polygon style="fill:#F79E02;" points="473.84,96.17 459.686,90.309 471.881,119.766 449.523,142.125 413.46,136.535 
	416.147,153.864 469.536,162.138 491.895,139.779 "/>
<polygon style="fill:#4D5561;" points="407.868,100.47 212.807,295.531 232.463,337.547 274.475,357.199 469.536,162.138 "/>
<polygon style="fill:#3A444A;" points="449.523,142.125 254.461,337.186 226.083,323.912 232.463,337.548 274.475,357.199 
	469.536,162.138 "/>
<path style="fill:#FFE17C;" d="M491.895,139.78l-61.668-61.668c17.03-17.03,44.638-17.03,61.668,0
	C508.924,95.142,508.924,122.75,491.895,139.78z"/>
<g>
	<path style="fill:#FFBA40;" d="M491.895,78.112c-3.504-3.504-7.461-6.275-11.676-8.338c7.959,16.272,5.188,36.465-8.338,49.991
		l20.013,20.013C508.924,122.75,508.924,95.142,491.895,78.112z"/>
	
		<rect x="181.531" y="321.728" transform="matrix(-0.7071 -0.7071 0.7071 -0.7071 158.1575 740.5883)" style="fill:#FFBA40;" width="101.857" height="31.621"/>
</g>
<rect x="242.656" y="349.405" transform="matrix(-0.7071 0.7071 -0.7071 -0.7071 698.3013 437.862)" style="fill:#F79E02;" width="31.621" height="28.299"/>
<path d="M92.946,187.642c19.318,21.899,46.795,42.841,81.669,62.244c4.504,2.506,9.552,3.759,14.602,3.758
	c5.048,0,10.099-1.253,14.602-3.758c40.452-22.506,70.785-46.939,90.155-72.62c17.022-22.567,25.186-45.916,23.609-67.521
	c-1.921-26.338-18.703-48.603-43.794-58.104c-27.657-10.474-59.488-3.603-84.568,17.851c-12.016-10.308-25.647-17.393-39.783-20.63
	c-15.129-3.463-30.495-2.547-44.441,2.651c-3.884,1.448-5.858,5.771-4.41,9.653c1.448,3.885,5.77,5.858,9.653,4.411
	c24.396-9.097,51.96-1.825,73.73,19.451c2.917,2.851,7.575,2.85,10.491,0c21.879-21.382,49.546-28.615,74.01-19.351
	c19.863,7.523,32.626,24.404,34.141,45.16c1.411,19.331-6.103,70.301-106.092,125.931c-4.505,2.507-10.104,2.507-14.609,0
	c-61.716-34.336-99.132-73.831-105.355-111.21c-2.897-17.406,1.441-33.578,12.215-45.541c2.774-3.08,2.526-7.825-0.553-10.599
	c-3.081-2.774-7.825-2.526-10.599,0.553c-13.896,15.428-19.532,36.045-15.869,58.051C65.055,147.863,75.55,167.922,92.946,187.642z"
	/>
<path d="M152.492,153.641v-8.005c0-4.145-3.36-7.505-7.505-7.505s-7.505,3.36-7.505,7.505v8.005c0,4.145,3.36,7.505,7.505,7.505
	S152.492,157.785,152.492,153.641z"/>
<path d="M240.952,153.641v-8.005c0-4.145-3.36-7.505-7.505-7.505s-7.505,3.36-7.505,7.505v8.005c0,4.145,3.36,7.505,7.505,7.505
	S240.952,157.785,240.952,153.641z"/>
<path d="M189.217,165.419c6.421,0,12.459-2.696,16.567-7.396c2.728-3.121,2.41-7.862-0.711-10.59
	c-3.12-2.728-7.861-2.409-10.59,0.711c-1.257,1.439-3.177,2.265-5.266,2.265c-2.088,0-4.008-0.826-5.266-2.265
	c-2.729-3.121-7.469-3.439-10.59-0.711s-3.44,7.469-0.711,10.59C176.757,162.722,182.796,165.419,189.217,165.419z"/>
<path d="M279.825,452.244h61.517c4.145,0,7.505-3.36,7.505-7.505s-3.36-7.505-7.505-7.505h-61.517c-4.145,0-7.505,3.36-7.505,7.505
	S275.681,452.244,279.825,452.244z"/>
<path d="M0,50.594v410.813c0,20.812,16.931,37.743,37.743,37.743h302.948c20.812,0,37.743-16.931,37.743-37.743V264.025
	c0,0,118.935-118.936,118.938-118.938c18.497-20.881,20.486-51.797,0.001-72.281c-19.706-19.705-52.599-19.683-72.283,0.002
	l-46.654,46.653V50.594c0-20.811-16.931-37.743-37.743-37.743H37.743C16.931,12.85,0,29.783,0,50.594z M486.758,83.419
	c11.879,11.879,13.946,31.117,4.758,45.198L441.56,78.66c5.803-3.787,12.58-5.817,19.671-5.817
	C470.873,72.845,479.94,76.599,486.758,83.419z M430.397,88.725l51.054,51.054l-11.744,11.745l-51.054-51.055L430.397,88.725z
	 M182.049,398.742c5.427,1.636,11.554,0.313,15.842-3.975c6.208-6.208,6.208-16.273,0-22.48c-6.208-6.207-16.273-6.208-22.48,0
	c-4.288,4.288-5.61,10.415-3.975,15.842l-50.71,50.71l-2.744-2.744c20.675-25.316,26.715-64.335,28.335-79.534
	c29.363-4.174,43.413-14.337,50.064-22.292l39.528,39.528c-7.956,6.65-18.119,20.702-22.292,50.064
	c-15.199,1.621-54.218,7.66-79.534,28.336l-2.744-2.744L182.049,398.742z M212.756,284.717c-0.754-0.659-1.645-1.163-2.594-1.479
	c-0.079-0.026-0.157-0.055-0.241-0.08h4.818l-1.761,1.761C212.905,284.851,212.831,284.784,212.756,284.717z M257.465,374.125
	l-61.409-61.41l11.746-11.746l61.41,61.409L257.465,374.125z M15.01,50.594c0-12.535,10.198-22.733,22.733-22.733h302.948
	c12.534,0,22.733,10.198,22.733,22.733v83.877L229.748,268.148H72.791c-4.145,0-7.505,3.36-7.505,7.505s3.36,7.505,7.505,7.505
	c0,0,132.842,0,132.888,0c-1.148,0.001-2.418,1.117-3.184,1.89l-22.36,22.36c-0.931,0.931-1.564,2.045-1.903,3.228H72.791
	c-4.145,0-7.505,3.359-7.505,7.505c0,4.145,3.36,7.505,7.505,7.505h111.249c-5.931,6.261-19.507,14.003-45.461,16.747
	c-3.656,0.386-6.495,3.37-6.704,7.042c-0.005,0.083-0.087,1.413-0.313,3.689H72.791c-4.145,0-7.505,3.36-7.505,7.505
	s3.36,7.505,7.505,7.505h56.688c-3.256,18.536-10.691,46.472-27.144,62.926c-2.931,2.931-2.931,7.682,0,10.613
	c0,0,26.153,26.154,26.168,26.169c2.897,2.897,7.719,2.895,10.613,0c26.093-26.092,81.073-29.508,81.621-29.54
	c3.674-0.205,6.658-3.044,7.046-6.705c3.048-28.831,12.264-42.394,18.767-47.163c0,0,5.6,5.6,5.609,5.609
	c2.872,2.872,7.751,2.863,10.613,0l22.36-22.36c2.803-2.801,2.87-7.615,0.125-10.485l33.822-33.822
	c2.931-2.931,2.931-7.683,0-10.613c-2.881-2.88-7.729-2.886-10.613,0l-33.821,33.819l-51.054-51.054l184.448-184.448l51.055,51.055
	L329.693,291.538c-2.931,2.931-2.931,7.682,0,10.613c2.931,2.931,7.683,2.931,10.613,0l23.117-23.117v182.372
	c0,12.535-10.198,22.733-22.733,22.733H37.743c-12.535,0.001-22.733-10.197-22.733-22.732V50.594z"/>
<g>
</g>
<g>
</g>
<g>
</g>
<g>
</g>
<g>
</g>
<g>
</g>
<g>
</g>
<g>
</g>
<g>
</g>
<g>
</g>
<g>
</g>
<g>
</g>
<g>
</g>
<g>
</g>
<g>
</g>
</svg>
