<?xml version="1.0" encoding="iso-8859-1"?>
<!-- Generator: Adobe Illustrator 19.0.0, SVG Export Plug-In . SVG Version: 6.00 Build 0)  -->
<svg version="1.1" id="Capa_1" xmlns="http://www.w3.org/2000/svg" xmlns:xlink="http://www.w3.org/1999/xlink" x="0px" y="0px"
	 viewBox="0 0 512 512" style="enable-background:new 0 0 512 512;" xml:space="preserve">
<polygon style="fill:#E7A7BF;" points="370.533,135.401 263.68,71.451 136.68,118.441 264.68,227.463 "/>
<path style="fill:#E33D41;" d="M253.422,51.555c-26.285,19.097-12.776,60.672,19.714,60.672l0,0l0,0
	c10.04,30.899,53.754,30.899,63.794,0l0,0l0,0c32.49,0,45.998-41.575,19.713-60.672l0,0l0,0
	c10.04-30.899-25.326-56.594-51.611-37.497l0,0l0,0C278.748-5.04,243.383,20.655,253.422,51.555L253.422,51.555L253.422,51.555z"/>
<path style="fill:#FAA0C2;" d="M258.578,51.555c26.285,19.097,12.776,60.672-19.714,60.672l0,0l0,0
	c-10.04,30.899-53.754,30.899-63.794,0l0,0l0,0c-32.49,0-45.998-41.575-19.713-60.672l0,0l0,0
	c-10.04-30.899,25.326-56.594,51.611-37.497l0,0l0,0C233.252-5.04,268.618,20.655,258.578,51.555L258.578,51.555L258.578,51.555z"/>
<path style="fill:#EAEAF1;" d="M458.136,177.539c0,0-22.1,179.862-163.652,208.882h-76.966
	C75.965,357.401,53.865,177.539,53.865,177.539H458.136z"/>
<path style="fill:#CCCDD9;" d="M93.865,177.539h-40c0,0,22.1,179.862,163.652,208.882h40
	C115.965,357.401,93.865,177.539,93.865,177.539z"/>
<path style="fill:#EAEAF1;" d="M321.865,469.725c-9.516-47.68-34.819-83.305-34.819-83.305L256,357.401l-31.046,29.019
	c0,0-25.303,35.625-34.819,83.305c-3.591,17.992,10.19,34.775,28.537,34.775h74.655C311.675,504.5,325.456,487.718,321.865,469.725z
	"/>
<path style="fill:#CCCDD9;" d="M230.136,469.726c9.516-47.68,34.819-83.305,34.819-83.305L276,376.096l-20-18.695l-31.046,29.02
	c0,0-25.303,35.625-34.819,83.305c-3.591,17.992,10.19,34.774,28.537,34.774h40C240.326,504.5,226.545,487.718,230.136,469.726z"/>
<path style="fill:#FAA0C2;" d="M422.256,217.157c39.014,6.179,63.143-41.176,35.212-69.107l0,0l0,0
	c17.933-35.195-19.648-72.777-54.844-54.844l0,0l0,0c-27.931-27.931-75.286-3.803-69.107,35.212l0,0l0,0
	c-35.195,17.933-26.881,70.427,12.133,76.606l0,0l0,0C351.83,244.038,404.323,252.352,422.256,217.157L422.256,217.157
	L422.256,217.157z"/>
<path style="fill:#FBBED5;" d="M89.744,217.157c-39.014,6.179-63.143-41.176-35.212-69.107l0,0l0,0
	c-17.933-35.195,19.648-72.777,54.844-54.844l0,0l0,0c27.931-27.931,75.286-3.803,69.107,35.212l0,0l0,0
	c35.195,17.933,26.881,70.427-12.133,76.606l0,0l0,0C160.171,244.038,107.677,252.352,89.744,217.157L89.744,217.157L89.744,217.157
	z"/>
<path style="fill:#F0484A;" d="M318.19,201.513c31.673-23.011,15.395-73.109-23.754-73.109l0,0l0,0
	c-12.098-37.233-64.773-37.233-76.871,0l0,0l0,0c-39.149,0-55.427,50.097-23.754,73.109l0,0l0,0
	c-12.098,37.233,30.517,68.195,62.19,45.184l0,0l0,0C287.673,269.709,330.288,238.747,318.19,201.513L318.19,201.513L318.19,201.513
	z"/>
<g>
	<circle style="fill:#FFE17C;" cx="256" cy="177.54" r="26.985"/>
	<circle style="fill:#FFE17C;" cx="394.99" cy="155.68" r="27.23"/>
	<circle style="fill:#FFE17C;" cx="117.01" cy="155.68" r="27.23"/>
	<circle style="fill:#FFE17C;" cx="305.03" cy="71.45" r="22.394"/>
	<circle style="fill:#FFE17C;" cx="206.97" cy="71.45" r="22.394"/>
</g>
<g>
	<path style="fill:#F0484A;" d="M236.419,409.545c-54.969,45.922-107.004,38.417-76.984-21.624
		c-30.02-60.04,22.015-67.545,76.984-21.624V409.545z"/>
	<path style="fill:#F0484A;" d="M275.582,409.545c54.969,45.922,107.004,38.417,76.983-21.624
		c30.02-60.04-22.015-67.545-76.983-21.624V409.545z"/>
</g>
<path style="fill:#E33D41;" d="M263.946,363.369h-15.892c-13.56,0-24.552,10.992-24.552,24.552l0,0
	c0,13.56,10.992,24.552,24.552,24.552h15.892c13.56,0,24.552-10.992,24.552-24.552l0,0
	C288.499,374.362,277.506,363.369,263.946,363.369z"/>
<path d="M255.999,212.024c19.015,0,34.484-15.47,34.484-34.485s-15.47-34.485-34.484-34.485c-19.015,0-34.485,15.47-34.485,34.485
	S236.984,212.024,255.999,212.024z M255.999,158.054c10.744,0,19.484,8.741,19.484,19.485s-8.741,19.485-19.484,19.485
	c-10.744,0-19.485-8.741-19.485-19.485S245.255,158.054,255.999,158.054z"/>
<path d="M370.434,180.238c6.559,6.559,15.28,10.171,24.556,10.171c18.917,0,34.727-15.833,34.727-34.726
	c0-18.935-15.813-34.727-34.727-34.727C364.617,120.956,349.056,158.86,370.434,180.238z M381.041,141.734
	c3.726-3.726,8.68-5.778,13.949-5.778c10.749,0,19.727,8.993,19.727,19.727c0,10.758-8.979,19.727-19.727,19.727
	C377.745,175.41,368.891,153.884,381.041,141.734z"/>
<path d="M117.009,190.41c18.951,0,34.726-15.796,34.727-34.726c0-18.931-15.814-34.727-34.726-34.728
	c-18.928,0-34.727,15.816-34.728,34.726C82.281,174.621,98.088,190.409,117.009,190.41z M103.185,141.862
	c3.588-3.599,8.496-5.906,13.823-5.906c10.756,0,19.727,8.995,19.727,19.726c0.001,10.71-9.038,19.727-19.726,19.727
	c-10.752,0-19.727-8.985-19.728-19.725C97.281,150.456,99.559,145.499,103.185,141.862z"/>
<path d="M206.966,101.345c16.484,0,29.895-13.411,29.895-29.895c0-16.483-13.411-29.894-29.895-29.894s-29.894,13.411-29.894,29.894
	C177.072,87.935,190.482,101.345,206.966,101.345z M206.966,56.557c8.213,0,14.895,6.682,14.895,14.894
	c0,8.213-6.682,14.895-14.895,14.895c-8.212,0-14.894-6.682-14.894-14.895C192.072,63.238,198.754,56.557,206.966,56.557z"/>
<path d="M196.562,299.5v-12.115c0-4.142-3.358-7.5-7.5-7.5s-7.5,3.358-7.5,7.5V299.5c0,4.142,3.358,7.5,7.5,7.5
	S196.562,303.641,196.562,299.5z"/>
<path d="M330.437,299.5v-12.115c0-4.142-3.358-7.5-7.5-7.5s-7.5,3.358-7.5,7.5V299.5c0,4.142,3.358,7.5,7.5,7.5
	S330.437,303.641,330.437,299.5z"/>
<path d="M255.999,313.466c8.603,0,16.683-3.599,22.168-9.874c2.726-3.118,2.408-7.856-0.711-10.583
	c-3.118-2.726-7.856-2.408-10.583,0.71c-2.636,3.016-6.6,4.746-10.874,4.746c-4.275,0-8.239-1.73-10.875-4.746
	c-2.726-3.119-7.464-3.436-10.583-0.711c-3.119,2.726-3.437,7.464-0.711,10.583C239.316,309.867,247.396,313.466,255.999,313.466z"
	/>
<path d="M38.705,195.226c3.413,8.24,8.836,15.155,15.531,20.264c5.822,21.54,13.42,42.041,22.636,60.954
	c1.815,3.724,6.306,5.271,10.028,3.456c3.723-1.814,5.271-6.304,3.457-10.027c-7.01-14.385-13.056-29.745-18.044-45.821
	c3.402,0.77,6.911,1.152,10.49,1.154c0.022,0,1.946-0.022,2.884-0.076c0.054,0.083,0.114,0.161,0.168,0.244
	c4.933,7.521,11.912,13.644,20.121,17.353c24.803,11.205,55.242-0.822,65.032-26.275c0.642-1.669,1.204-3.379,1.663-5.107
	c4.285-1.138,8.442-2.855,12.262-5.107c-0.02,0.113-0.034,0.226-0.052,0.338c-1.078,6.552-0.794,13.332,0.895,19.757
	c3.516,13.375,13.156,24.662,25.486,30.782c13.917,6.908,30.953,6.371,44.452-1.323c0.094-0.054,0.191-0.099,0.285-0.153
	c0.094,0.054,0.191,0.1,0.285,0.153c0.646,0.368,1.299,0.718,1.956,1.054c5.885,3.011,12.422,4.838,19.032,5.175
	c22.152,1.131,43.273-14.185,48.942-35.654c0.005-0.02,0.011-0.039,0.016-0.059c1.649-6.28,1.949-12.851,0.959-19.265
	c-0.041-0.268-0.078-0.538-0.124-0.805c0.213,0.125,0.438,0.232,0.653,0.355c3.64,2.073,7.56,3.678,11.609,4.752
	c0.285,1.075,1.413,4.46,1.655,5.087c6.674,17.365,22.535,29.138,41.786,30.392c16.401,1.068,32.586-6.172,42.145-19.666
	c0.473-0.668,0.953-1.34,1.397-2.027c0.964,0.055,1.929,0.076,2.895,0.076c3.582-0.002,7.09-0.386,10.493-1.157
	c-20.009,64.806-51.731,101.142-73.839,119.808c-0.361-0.734-0.751-1.458-1.187-2.163c-5.422-8.776-16.03-12.569-25.952-12.569
	c-18.247,0-41.406,10.261-64.095,28.284c-0.088,0.07-0.175,0.136-0.263,0.206c-0.037-0.013-0.075-0.021-0.112-0.034
	c-3.303-1.137-6.815-1.709-10.307-1.709h-15.892c-3.496,0-7.002,0.583-10.31,1.711c-0.036,0.012-0.072,0.02-0.108,0.032
	c-0.087-0.07-0.175-0.136-0.262-0.205c-22.689-18.023-45.848-28.284-64.095-28.284c-10.85,0-22.167,4.601-27.156,14.759
	c-15.268-12.78-29.022-28.72-40.987-47.518c-2.224-3.494-6.858-4.524-10.354-2.3c-3.494,2.224-4.524,6.86-2.3,10.354
	c14.525,22.819,31.599,41.755,50.783,56.358c0.63,9.238,4.011,18.891,7.846,27.144c-6.671,14.357-11.987,32.954-3.784,46.228
	c5.009,8.105,14.226,12.569,25.955,12.57c4.899,0,10.153-0.743,15.656-2.174c-2.533,7.966-4.597,15.897-6.157,23.711
	c-2.152,10.782,0.615,21.843,7.59,30.349c6.982,8.51,17.298,13.392,28.304,13.392h74.654c11.005,0,21.321-4.881,28.302-13.393
	c6.976-8.505,9.742-19.567,7.59-30.349c-1.56-7.813-3.624-15.746-6.157-23.713c5.504,1.431,10.759,2.174,15.665,2.175
	c11.725,0,20.941-4.463,25.949-12.566c8.204-13.273,2.887-31.873-3.785-46.232c3.836-8.257,7.219-17.915,7.845-27.157
	c23.793-18.107,44.205-42.703,60.691-73.202c14.5-26.826,23.347-53.572,28.358-72.088c6.687-5.107,12.102-12.016,15.512-20.247
	c6.902-16.665,4.174-34.831-6.996-48.571c5.456-14.037,4.161-29.108-3.773-42.057c-8.891-14.508-24.679-23.52-41.204-23.52
	c-5.887,0-11.689,1.105-17.309,3.292c-7.618-6.189-16.698-9.86-26.24-10.604c-1.046-9.571-5.433-18.267-12.682-24.968
	c2.167-11.099-0.243-22.339-6.892-31.491C350.326,6.471,337.776,0,324.63,0c-6.821,0-13.507,1.775-19.597,5.171
	c-6.089-3.395-12.774-5.17-19.594-5.17c-11.144,0-21.734,4.606-29.455,12.446C248.202,4.573,237.599,0,226.564,0
	c-6.821,0-13.507,1.775-19.598,5.171C200.876,1.775,194.19,0,187.369,0c-13.147,0-25.697,6.47-33.571,17.308
	c-6.649,9.151-9.059,20.393-6.892,31.493c-7.249,6.701-11.636,15.396-12.682,24.967c-9.541,0.744-18.622,4.415-26.24,10.604
	c-5.62-2.187-11.422-3.292-17.309-3.292c-16.526,0-32.315,9.012-41.206,23.52c-7.934,12.948-9.228,28.02-3.771,42.057
	C34.53,160.396,31.802,178.561,38.705,195.226z M267.414,404.592c-1.126,0.25-2.287,0.382-3.469,0.382h-15.892
	c-9.191,0-17.033-7.818-17.051-17.022c0-0.01-0.001-0.02-0.001-0.03s0.001-0.02,0.001-0.03c0.018-9.248,7.802-17.022,17.051-17.022
	c0,0,15.881,0,15.904,0c9.213,0.196,17.041,7.74,17.041,17.052C280.997,395.891,274.995,402.91,267.414,404.592z M173.278,431.72
	c-6.517-0.001-10.956-1.836-13.192-5.456c-4.018-6.501-1.81-19.253,6.058-34.988c1.056-2.111,1.056-4.597,0-6.708
	c-5.386-10.772-8.117-20.145-8.018-27.072c0.495-6.804,4.297-12.158,11.386-13.117c0.059-0.008,0.12-0.014,0.179-0.021
	c11.891-1.515,32.258,5.128,54.678,21.962c-2.099,2.3-3.841,4.893-5.187,7.686c-0.178,0.369-1.475,3.467-1.435,3.478
	c-10.022-2.68-24.44-4.983-40.494-2.685c-4.101,0.587-6.948,4.388-6.361,8.487c0.587,4.101,4.382,6.947,8.487,6.361
	c15.02-2.15,28.411,0.47,36.976,3.028c0.468,3.135,1.403,6.215,2.783,9.069c0.015,0.03,0.028,0.061,0.043,0.09
	c1.347,2.795,3.09,5.39,5.19,7.691c-8.785,6.6-17.706,11.993-26.164,15.79c-0.091,0.041-0.176,0.09-0.265,0.134
	C185.276,431.042,176.66,431.72,173.278,431.72z M314.509,471.194c1.269,6.358-0.363,12.883-4.479,17.901
	c-4.121,5.024-10.208,7.905-16.704,7.905h-74.654c-6.496,0-12.584-2.881-16.705-7.906c-4.115-5.018-5.748-11.542-4.479-17.9
	c2.19-10.975,5.448-22.226,9.693-33.484c4.9-2.355,9.896-5.151,14.928-8.357c5.254-3.348,10.317-6.992,15.197-10.864
	c0.11-0.087,0.219-0.168,0.329-0.256c0.048,0.017,0.098,0.027,0.146,0.043c3.297,1.099,6.792,1.698,10.271,1.698
	c0,0,15.892,0,15.893,0c3.488,0,6.961-0.589,10.266-1.696c0.05-0.017,0.101-0.028,0.151-0.045c0.11,0.088,0.22,0.169,0.33,0.257
	c4.834,3.846,9.96,7.543,15.22,10.878c5.024,3.199,10.011,5.99,14.904,8.341C309.061,448.97,312.318,460.221,314.509,471.194z
	 M351.916,426.268c-2.236,3.618-6.673,5.453-13.194,5.453c-8.689,0-17.092-2.883-24.932-6.403
	c-8.457-3.797-17.379-9.19-26.164-15.79c2.104-2.305,3.849-4.904,5.196-7.704c1.342-2.788,2.348-5.991,2.82-9.147
	c8.564-2.558,21.956-5.179,36.976-3.029c4.099,0.585,7.9-2.261,8.487-6.361s-2.261-7.9-6.361-8.487
	c-16.055-2.299-30.473,0.006-40.494,2.685c0.025-0.007-1.299-3.192-1.429-3.465c-1.347-2.798-3.091-5.395-5.192-7.698
	c20.748-15.58,39.74-22.435,51.882-22.167c0.012,0,0.023,0.001,0.035,0.001c8.319,0.017,14.193,4.585,14.326,13.326
	c0.105,6.929-2.626,16.308-8.016,27.088c-1.056,2.111-1.056,4.597,0,6.708C353.724,407.014,355.933,419.768,351.916,426.268z
	 M200.82,140.598c4.921-2.975,10.651-4.693,16.744-4.693c3.249,0,6.129-2.092,7.133-5.183c5.447-16.765,19.74-22.738,31.299-22.738
	c14.112,0,26.945,9.331,31.306,22.738c1.004,3.09,3.884,5.183,7.133,5.183c17.316,0,31.809,14,32.913,31.172
	c0.005,0.072,0.01,0.144,0.015,0.216c0.675,11.097-4.635,21.633-13.557,28.134c-0.009,0.006-0.016,0.013-0.025,0.019
	c-2.629,1.91-3.728,5.295-2.725,8.385c6.807,20.954-9.318,43.27-31.442,43.268c-6.922-0.001-13.633-2.42-19.207-6.469
	c-2.603-1.891-6.215-1.89-8.816,0c-5.591,4.065-12.263,6.469-19.206,6.469c-21.779,0-38.13-22.694-31.443-43.268
	c0.763-2.349,0.278-4.994-1.242-6.931c-1.922-2.45-4.935-4.1-7.041-6.448C179.053,175.28,183.726,150.933,200.82,140.598z
	 M406.028,99.889c4.96-2.527,10.106-3.809,15.295-3.809c24.467,0,40.437,27.023,29.462,48.565c-1.475,2.895-0.918,6.411,1.379,8.708
	c9.848,9.848,12.567,23.355,7.273,36.134c-4.757,11.483-15.579,19.81-28.079,20.641c-0.018,0.001-0.035,0.002-0.053,0.003
	c-2.804,0.156-5.516-0.136-8.301-0.415c-3.065-0.308-6.022,1.269-7.432,4.036c-2.763,5.424-6.872,10.182-12.064,13.402
	c-0.031,0.02-0.063,0.039-0.094,0.058c-18.418,11.094-43.897,1.374-49.538-19.514c-0.342-1.267-0.615-2.552-0.82-3.848
	c-0.499-3.152-3.053-5.73-6.234-6.234c-0.507-0.08-11.662-3.271-11.315-3.833c7.121-11.535,8.653-25.74,4.831-38.677
	c-0.013-0.043-0.026-0.085-0.039-0.127c-1.812-6.007-4.754-11.683-8.691-16.573c1.638-1.232,3.412-2.337,5.313-3.306
	c2.895-1.476,4.511-4.647,4.002-7.856c-3.158-19.94,12.828-38.625,33.237-38.625c6.054,0,14.986,1.716,23.159,9.89
	C399.617,100.807,403.133,101.364,406.028,99.889z M285.439,15.001c5.396,0,10.505,1.724,15.186,5.124
	c2.628,1.91,6.188,1.909,8.817,0c4.68-3.401,9.791-5.125,15.188-5.125c8.236,0,16.449,4.263,21.435,11.125
	c4.882,6.719,6.105,14.927,3.446,23.112c-1.004,3.09,0.096,6.476,2.725,8.385c5.979,4.344,9.667,10.478,10.574,17.347
	c-9.426,2.239-17.742,7.138-24.121,13.811c-0.082,0.084-0.165,0.167-0.246,0.252c-7.445,7.804-12.015,18.181-12.832,28.926
	c-0.001,0.011-0.002,0.022-0.003,0.033c-2.582,3.391-5.937,6.011-9.868,7.712c-4.992-2.446-10.367-3.964-16.056-4.538
	c-1.49-3.351-3.365-6.537-5.567-9.469c-3.957-5.276-9.068-9.693-14.851-12.862c-0.3-0.164-3.618-1.884-3.66-1.801
	c0.028-0.058,0.051-0.117,0.079-0.175c1.614-3.298,2.793-6.819,3.498-10.423c5.182,8.906,14.826,14.91,25.851,14.91
	c16.484,0,29.895-13.411,29.895-29.895c0-16.483-13.411-29.894-29.895-29.894c-13.259,0-24.524,8.68-28.426,20.655
	c-0.772-1.759-1.665-3.463-2.688-5.096c-1.91-3.052-4.251-5.858-6.89-8.307c0.022-0.114,0.033-0.227,0.054-0.341
	c0.649-3.475,0.857-7.05,0.599-10.577c-0.313-4.271-1.353-8.669-3.032-12.614C269.657,18.94,277.462,15.001,285.439,15.001z
	 M290.138,71.451c0-8.212,6.682-14.894,14.894-14.894c8.213,0,14.895,6.682,14.895,14.894c0,8.213-6.682,14.895-14.895,14.895
	C296.82,86.345,290.138,79.664,290.138,71.451z M159.764,57.623c2.629-1.91,3.729-5.295,2.725-8.386
	c-2.66-8.186-1.437-16.394,3.444-23.112C170.918,19.263,179.132,15,187.369,15c5.398,0,10.508,1.724,15.188,5.125
	c2.628,1.91,6.188,1.91,8.817,0c4.681-3.401,9.792-5.125,15.189-5.125c8.236,0,16.449,4.263,21.435,11.125
	c4.845,6.668,5.969,15.293,3.446,23.113c-0.979,3.036,0.139,6.51,2.725,8.385c11.33,8.232,13.933,23.718,6.436,35.46
	c-0.023,0.036-0.048,0.071-0.071,0.106c-0.749-0.067-3.773-0.209-4.534-0.209c-19.368,0-36,10.9-43.683,28.186
	c-5.69,0.573-11.063,2.092-16.056,4.538c-3.931-1.701-7.286-4.321-9.868-7.711c-0.001-0.016-0.003-0.032-0.005-0.049
	c-1.514-20.585-17.12-38.204-37.198-42.973C150.098,68.1,153.785,61.966,159.764,57.623z M59.835,153.353
	c2.298-2.297,2.854-5.813,1.38-8.707c-10.986-21.561,5.01-48.566,29.461-48.566c5.189,0,10.335,1.281,15.295,3.808
	c2.895,1.475,6.411,0.918,8.707-1.379c22.213-22.22,61.317-2.33,56.397,28.736c-0.508,3.209,1.108,6.381,4.003,7.856
	c1.901,0.969,3.675,2.073,5.313,3.305c-9.366,11.63-13.063,27.634-9.447,42.148c1.153,4.626,3.03,9.154,5.555,13.243
	c-0.013,0.007-0.025,0.016-0.039,0.023c-0.041,0.022-0.083,0.042-0.124,0.065c-3.456,1.893-7.275,3.116-11.161,3.732
	c-3.209,0.508-5.726,3.025-6.234,6.235c-2.391,15.092-15.275,26.752-30.439,27.981c-12.28,0.995-24.472-5.233-30.814-15.81
	c-2.124-3.542-4.295-7.038-9.119-6.273C57.323,214.703,37.589,175.6,59.835,153.353z"/>
<g>
</g>
<g>
</g>
<g>
</g>
<g>
</g>
<g>
</g>
<g>
</g>
<g>
</g>
<g>
</g>
<g>
</g>
<g>
</g>
<g>
</g>
<g>
</g>
<g>
</g>
<g>
</g>
<g>
</g>
</svg>
