<?xml version="1.0" encoding="iso-8859-1"?>
<!-- Generator: Adobe Illustrator 19.0.0, SVG Export Plug-In . SVG Version: 6.00 Build 0)  -->
<svg version="1.1" id="Capa_1" xmlns="http://www.w3.org/2000/svg" xmlns:xlink="http://www.w3.org/1999/xlink" x="0px" y="0px"
	 viewBox="0 0 512 512" style="enable-background:new 0 0 512 512;" xml:space="preserve">
<polygon style="fill:#FFE17C;" points="214.79,297.21 116.924,218.102 46.507,339.911 48.79,389.427 129.623,470.259 
	172.089,465.494 293.898,395.077 "/>
<polygon style="fill:#FFBA40;" points="129.623,470.259 172.076,465.495 293.896,395.075 275.45,372.254 120.937,461.573 "/>
<path style="fill:#FBBED5;" d="M405.1,330.791l-111.202,64.285c-29.217-11.738-66.87-38.126-102.859-74.115
	s-62.378-73.643-74.115-102.859l64.286-111.202L405.1,330.791z"/>
<path style="fill:#FAA0C2;" d="M293.895,395.075l111.206-64.284l-21.218-21.218l-120.592,69.711
	C274.143,385.959,284.46,391.285,293.895,395.075z"/>
<ellipse transform="matrix(0.7071 -0.7071 0.7071 0.7071 -68.8848 271.3915)" style="fill:#4D5561;" cx="293.156" cy="218.847" rx="52.451" ry="158.314"/>
<path style="fill:#FBBED5;" d="M172.089,465.494l-56.382,32.586c-13.401,7.744-29.732,8.622-43.809,2.212
	c-10.994-4.999-23.99-12.726-35.728-24.462s-19.464-24.734-24.462-35.728c-6.409-14.076-5.531-30.408,2.212-43.809l32.586-56.382
	c13.874,21.93,33.135,45.903,56.408,69.176C126.187,432.359,150.161,451.62,172.089,465.494z"/>
<path style="fill:#FAA0C2;" d="M145.961,447.108L94.49,476.862c-13.401,7.744-29.732,8.622-43.809,2.212
	c-7.546-3.431-16.034-8.147-24.41-14.562c0.677,0.884,1.378,1.766,2.093,2.648c2.453,3.018,5.059,5.919,7.808,8.67
	c10.27,10.269,22.527,18.455,35.728,24.462c13.948,6.348,30.564,5.44,43.809-2.212l56.377-32.589
	C163.629,460.14,154.868,453.981,145.961,447.108z"/>
<circle style="fill:#FBBED5;" cx="332.464" cy="26.983" r="19.538"/>
<g>
	<circle style="fill:#FD6064;" cx="208.787" cy="44.39" r="19.538"/>
	<circle style="fill:#FD6064;" cx="467.605" cy="303.219" r="19.538"/>
</g>
<circle style="fill:#FFE17C;" cx="464.004" cy="47.999" r="19.538"/>
<circle style="fill:#7EDEA5;" cx="331.164" cy="180.831" r="19.538"/>
<circle style="fill:#FBBED5;" cx="485.019" cy="179.541" r="19.538"/>
<path d="M109.681,304.776l-7.867,7.867c-2.93,2.93-2.93,7.68,0,10.608c2.821,2.821,7.681,2.929,10.608,0l7.867-7.867
	c2.93-2.93,2.93-7.68,0-10.608C117.361,301.846,112.611,301.846,109.681,304.776z"/>
<path d="M207.223,391.709c-2.93-2.93-7.68-2.93-10.608,0l-7.867,7.867c-2.93,2.93-2.93,7.68,0,10.608
	c2.819,2.819,7.684,2.926,10.609,0l7.867-7.867C210.153,399.389,210.153,394.639,207.223,391.709z"/>
<path d="M161.359,364.11c-3.497,0.23-7.018-1.151-9.668-3.802c-2.651-2.651-4.036-6.174-3.801-9.668
	c0.277-4.134-2.849-7.71-6.983-7.988c-4.126-0.272-7.71,2.849-7.987,6.983c-0.524,7.814,2.451,15.57,8.162,21.282
	c5.28,5.28,12.308,8.222,19.512,8.222c4.684,0,9.102-2.83,8.751-8.047C169.069,366.959,165.499,363.83,161.359,364.11z"/>
<path d="M370.276,103.326c2.901-0.022,5.697-1.729,6.899-4.533l30.414-70.973c1.632-3.808-0.132-8.218-3.94-9.85
	c-3.808-1.632-8.218,0.132-9.85,3.94l-30.414,70.973c-1.632,3.808,0.132,8.218,3.94,9.85
	C368.281,103.144,369.284,103.333,370.276,103.326z"/>
<path d="M351.632,46.055c10.417-10.417,10.408-27.832,0-38.24c-10.422-10.422-27.826-10.413-38.24,0
	c-10.418,10.418-10.408,27.832,0,38.24C323.814,56.474,341.219,56.467,351.632,46.055z M320.521,26.935
	c0-3.096,1.16-6.191,3.48-8.511c4.642-4.642,12.386-4.637,17.022,0c4.64,4.64,4.635,12.388,0,17.022
	c-4.632,4.631-12.398,4.625-17.022,0C321.681,33.125,320.522,30.029,320.521,26.935z"/>
<path d="M227.948,63.464c10.423-10.423,10.415-27.825,0-38.24c-10.424-10.424-27.823-10.415-38.24-0.001
	c-10.417,10.416-10.406,27.833,0,38.24C200.131,73.885,217.542,73.871,227.948,63.464z M196.837,44.344
	c0-3.096,1.161-6.19,3.481-8.511c4.633-4.633,12.397-4.625,17.022,0c4.635,4.636,4.628,12.394,0,17.022
	c-4.639,4.639-12.389,4.633-17.022,0C197.996,50.534,196.837,47.439,196.837,44.344z"/>
<path d="M467.655,276.25c-6.961,0.001-13.92,2.603-19.118,7.802c-10.419,10.42-10.41,27.83,0,38.24
	c10.413,10.414,27.838,10.401,38.24,0c10.414-10.414,10.4-27.839,0-38.241C481.573,278.848,474.613,276.249,467.655,276.25z
	 M476.167,311.682c-4.636,4.636-12.392,4.63-17.022,0c-4.693-4.693-4.693-12.329,0-17.022c4.644-4.645,12.381-4.64,17.022,0
	C480.86,299.353,480.86,306.989,476.167,311.682z"/>
<path d="M483.168,67.072c10.422-10.423,10.414-27.825,0-38.24c-10.424-10.424-27.823-10.416-38.24,0
	c-10.422,10.422-10.413,27.827,0,38.24C455.352,77.495,472.754,77.486,483.168,67.072z M452.057,47.952
	c0-3.097,1.16-6.192,3.48-8.511c4.646-4.646,12.38-4.642,17.022,0c4.636,4.636,4.63,12.393,0,17.022
	c-4.639,4.638-12.388,4.634-17.022,0C453.217,54.141,452.057,51.046,452.057,47.952z"/>
<path d="M463.83,241.124c3.776-1.705,5.454-6.148,3.75-9.924c-1.705-3.776-6.147-5.455-9.924-3.75l-59.986,27.088
	c-11.64-19.683-27.113-40.17-43.858-58.892c6.989-10.58,5.472-25.033-3.476-33.981c-8.942-8.943-23.42-10.451-33.981-3.476
	c-19.785-17.721-40.009-32.776-58.873-43.899l27.07-59.944c1.705-3.776,0.026-8.219-3.75-9.924c-3.775-1.704-8.219-0.026-9.924,3.75
	l-26.593,58.888c-2.326-1.178-4.632-2.313-6.895-3.349c-36.054-16.513-53.312-10.291-61.44-2.163
	c-2.931,2.931-5.056,6.486-6.415,10.595L7.472,392.492c-8.97,15.524-9.921,34.467-2.546,50.666
	c6.605,14.528,15.349,27.289,25.988,37.927c10.637,10.637,23.398,19.38,37.924,25.986c7.236,3.295,15.018,4.928,22.799,4.928
	c9.641,0,19.279-2.509,27.872-7.473l280.163-161.953c4.114-1.341,7.742-3.483,10.78-6.522c13.88-13.881,9.151-39.55-5.514-68.333
	L463.83,241.124z M339.726,172.274c4.641,4.641,4.637,12.385,0,17.022c-4.568,4.568-12.462,4.56-17.022,0
	c-4.297-4.297-4.687-11.59-0.705-16.235c0.012-0.014,0.021-0.029,0.032-0.042C326.436,167.638,334.868,167.416,339.726,172.274z
	 M172.351,456.657c-0.882-0.577-1.765-1.161-2.654-1.755c-7.131-4.777-13.97-9.926-20.809-15.106
	c-3.267-2.55-7.98-1.968-10.529,1.297c-2.55,3.266-1.968,7.98,1.297,10.529c5.902,4.613,11.938,9.06,18.107,13.31
	c0.041,0.028,0.082,0.058,0.123,0.086l-45.884,26.519c-11.336,6.55-25.148,7.253-36.95,1.879
	c-12.887-5.859-24.167-13.577-33.529-22.939c-9.362-9.362-17.08-20.643-22.941-33.532c-5.372-11.8-4.669-25.612,1.88-36.946
	l26.517-45.88c3.164,4.601,6.445,9.124,9.818,13.575c10.204,13.474,21.259,26.302,32.928,38.527
	c2.614,2.738,5.256,5.447,7.932,8.123c6.074,6.073,12.387,12.057,18.763,17.785c3.016,2.708,7.882,2.45,10.594-0.567
	c2.769-3.083,2.515-7.826-0.567-10.594c-6.178-5.55-12.295-11.349-18.181-17.233c-2.679-2.679-5.26-5.453-7.938-8.132
	c-13.675-14.34-26.508-29.56-37.992-45.715c-2.35-3.305-6.953-10.171-6.995-10.235l60.828-105.224c0.16,0.318,0.328,0.64,0.49,0.959
	c12.053,23.689,28.065,45.269,45.398,65.338c13.525,15.66,28.078,30.421,43.51,44.207c19.621,17.528,40.75,33.763,63.797,46.553
	c2.706,1.501,5.44,2.957,8.206,4.346L172.351,456.657z M394.649,280.859c9.79,21.378,11.733,38.045,5.195,44.583
	c-9.639,9.641-31.061,0.637-41.042-3.64c-6.028-2.583-12.22-5.704-18.062-8.99c-29.404-16.541-55.538-38.437-79.326-62.227
	c-11.687-11.688-22.597-23.808-32.427-36.026c-2.598-3.228-7.318-3.739-10.547-1.142c-3.186,2.563-3.708,7.363-1.143,10.549
	c10.16,12.627,21.435,25.152,33.51,37.227c32.103,32.103,65.44,56.763,93.835,70.58c9.239,4.544,18.073,7.99,26.252,10.107
	l-77.485,44.794c-0.447-0.192-5.969-2.596-8.184-3.788c-28.905-14.306-54.602-34.803-78.007-56.791
	c-7.324-6.88-14.429-13.985-21.309-21.309c-23.964-25.522-46.643-53.82-60.583-86.194l44.784-77.466
	c1.366,5.345,3.324,11.051,5.863,17.085c6.064,14.403,14.1,27.935,22.852,40.853c2.291,3.381,7.047,4.287,10.42,2.001
	c3.43-2.325,4.325-6.99,2-10.419c-1.358-2.002-2.686-4.027-3.999-6.059c-16.021-24.933-24.922-47.318-24.505-61.341
	c0.001-0.034,0.003-0.068,0.005-0.102c0.902-25.46,35.416-11.737,48.395-5.792c2.282,1.044,4.61,2.19,6.963,3.393l-14.53,32.175
	c-1.705,3.776-0.026,8.219,3.75,9.924c3.726,1.681,8.238-0.015,9.924-3.75l14.018-31.042c17.678,10.567,36.664,24.785,55.338,41.54
	c-4.219,9.305-2.899,20.522,3.954,28.629c0.074,0.088,0.149,0.175,0.225,0.262c0.855,0.987,1.77,1.9,2.758,2.756
	c0.067,0.058,0.133,0.116,0.2,0.173c7.897,6.68,19.253,8.282,28.673,3.992c16.753,18.671,30.967,37.654,41.532,55.329
	l-31.041,14.017c-3.776,1.704-5.454,6.148-3.75,9.924c1.675,3.711,6.229,5.417,9.925,3.75l32.175-14.53
	C392.458,276.25,393.604,278.578,394.649,280.859z"/>
<path d="M409.267,144.676c1.602,3.739,6.122,5.539,9.85,3.94l70.972-30.414c3.808-1.631,5.572-6.042,3.94-9.85
	c-1.632-3.809-6.044-5.574-9.85-3.94l-70.972,30.414C409.4,136.457,407.635,140.867,409.267,144.676z"/>
<path d="M485.065,152.554c-6.956,0.001-13.911,2.607-19.119,7.815c-10.413,10.413-10.402,27.838,0,38.24
	c10.422,10.421,27.826,10.414,38.24,0c10.423-10.424,10.417-27.821,0.001-38.24C498.975,155.156,492.019,152.553,485.065,152.554z
	 M493.576,187.999c-4.644,4.643-12.382,4.64-17.021,0c-4.642-4.643-4.637-12.384,0-17.022c4.645-4.646,12.384-4.639,17.022,0
	C498.214,175.614,498.21,183.366,493.576,187.999z"/>
<g>
</g>
<g>
</g>
<g>
</g>
<g>
</g>
<g>
</g>
<g>
</g>
<g>
</g>
<g>
</g>
<g>
</g>
<g>
</g>
<g>
</g>
<g>
</g>
<g>
</g>
<g>
</g>
<g>
</g>
</svg>
