<?xml version="1.0" encoding="iso-8859-1"?>
<!-- Generator: Adobe Illustrator 19.0.0, SVG Export Plug-In . SVG Version: 6.00 Build 0)  -->
<svg version="1.1" id="Capa_1" xmlns="http://www.w3.org/2000/svg" xmlns:xlink="http://www.w3.org/1999/xlink" x="0px" y="0px"
	 viewBox="0 0 512 512" style="enable-background:new 0 0 512 512;" xml:space="preserve">
<path style="fill:#FFBA40;" d="M273.074,26.156c-9.591-9.031-24.556-9.031-34.147,0L7.5,244.072L256,406.044l248.5-161.973
	L273.074,26.156z"/>
<polygon style="fill:#F79E02;" points="29.974,222.91 7.5,244.072 175.453,353.544 198.091,332.489 "/>
<polygon style="fill:#E6A73A;" points="336.547,353.544 504.5,244.072 482.027,222.91 313.909,332.489 "/>
<path style="fill:#EAEAF1;" d="M394.821,81.492H117.179c-11.864,0-21.482,9.618-21.482,21.482v313.071h320.605V102.974
	C416.303,91.11,406.685,81.492,394.821,81.492z"/>
<path style="fill:#FD6064;" d="M256,154.969c-81.581-79.729-216.147,46.985-10.79,161.237c6.704,3.73,14.877,3.73,21.581,0
	C472.148,201.953,337.581,75.239,256,154.969z"/>
<path style="fill:#F0484A;" d="M214.531,131.697c-74.38-16.361-141.937,88.473,30.679,184.508c2.234,1.243,4.633,2.063,7.085,2.477
	C129.921,232.744,159.227,144.892,214.531,131.697z"/>
<polygon style="fill:#CCCDD9;" points="256,370.234 95.698,265.749 95.698,416.045 416.303,416.045 416.303,265.749 "/>
<path style="fill:#FFE17C;" d="M440.831,356.426l-78.384-19.764l0,0L256,406.045l-106.447-69.382l-95.722,14.23L7.5,468.78
	c0,13.165,10.672,23.837,23.837,23.837h449.326c13.165,0,23.837-10.672,23.837-23.837L440.831,356.426z"/>
<g>
	<polygon style="fill:#FFBA40;" points="7.5,468.78 149.554,336.662 7.5,244.072 	"/>
	<polygon style="fill:#FFBA40;" points="504.5,468.78 362.447,336.662 504.5,244.072 	"/>
</g>
<path d="M31.337,500.117h449.326c17.279,0,31.337-14.058,31.337-31.337V244.072c0-2.039-0.875-4.063-2.359-5.46l-85.839-80.828
	v-54.811c0-15.98-13.001-28.981-28.981-28.981h-60.005l-56.601-53.296c-6.036-5.683-13.925-8.813-22.215-8.813
	s-16.179,3.13-22.215,8.813l-56.6,53.296h-60.006c-15.98,0-28.981,13.001-28.981,28.981v54.81l-85.84,80.829
	C0.886,239.997,0,242.028,0,244.072V468.78C0,486.059,14.058,500.117,31.337,500.117z M15,257.913l122.418,79.792L15,451.562
	V257.913z M480.663,485.117H31.337c-7.983,0-14.635-5.759-16.049-13.338l135.08-125.633c0,0,101.532,66.178,101.536,66.181
	c2.441,1.591,5.718,1.611,8.19,0l101.536-66.181L496.712,471.78C495.298,479.358,488.646,485.117,480.663,485.117z M497,257.913
	v193.649L374.581,337.705L497,257.913z M492.416,242.996l-68.614,44.722V178.387L492.416,242.996z M244.068,31.616
	c3.242-3.052,7.479-4.733,11.932-4.733s8.691,1.681,11.933,4.733l45.003,42.376h-113.87L244.068,31.616z M117.179,88.992h277.642
	c7.709,0,13.981,6.272,13.981,13.981v58.05v136.472L256,397.092l-152.802-99.596V102.973
	C103.197,95.264,109.469,88.992,117.179,88.992z M88.197,178.387v109.331l-68.614-44.722L88.197,178.387z"/>
<path d="M241.563,322.76c4.453,2.478,9.444,3.716,14.437,3.716c4.992,0,9.985-1.239,14.437-3.716
	c39.865-22.18,69.759-46.259,88.851-71.57c16.785-22.253,24.835-45.28,23.28-66.591c-1.896-25.989-18.455-47.958-43.213-57.333
	c-27.257-10.323-58.627-3.57-83.354,17.548c-22.325-19.068-50.152-26.52-75.682-19.969c-4.012,1.03-6.43,5.117-5.4,9.129
	c1.029,4.013,5.118,6.429,9.129,5.4c22.785-5.849,47.098,1.792,66.71,20.959c2.915,2.848,7.57,2.848,10.484,0
	c21.523-21.035,48.738-28.153,72.801-19.041c19.528,7.396,32.076,23.993,33.565,44.398c1.388,19.024-6.011,69.187-104.463,123.961
	c-4.406,2.452-9.882,2.452-14.288,0c-85.303-47.458-101.941-91.398-104.268-113.365c-1.9-17.944,4.086-33.978,16.856-45.147
	c3.118-2.727,3.434-7.465,0.707-10.583c-2.727-3.118-7.466-3.434-10.583-0.707c-16.309,14.266-24.29,35.412-21.896,58.017
	C134.217,240.789,173.954,285.144,241.563,322.76z"/>
<path d="M219.926,227.849v-7.886c0-4.142-3.358-7.5-7.5-7.5s-7.5,3.358-7.5,7.5v7.886c0,4.142,3.358,7.5,7.5,7.5
	S219.926,231.991,219.926,227.849z"/>
<path d="M307.073,227.849v-7.886c0-4.142-3.358-7.5-7.5-7.5s-7.5,3.358-7.5,7.5v7.886c0,4.142,3.358,7.5,7.5,7.5
	S307.073,231.991,307.073,227.849z"/>
<path d="M256,239.558c6.355,0,12.333-2.668,16.401-7.322c2.726-3.119,2.408-7.856-0.71-10.583c-3.118-2.726-7.856-2.409-10.583,0.71
	c-1.219,1.394-3.081,2.194-5.108,2.194c-2.027,0-3.889-0.8-5.108-2.194c-2.727-3.119-7.465-3.437-10.583-0.71
	c-3.119,2.726-3.437,7.464-0.71,10.583C243.666,236.89,249.645,239.558,256,239.558z"/>
<g>
</g>
<g>
</g>
<g>
</g>
<g>
</g>
<g>
</g>
<g>
</g>
<g>
</g>
<g>
</g>
<g>
</g>
<g>
</g>
<g>
</g>
<g>
</g>
<g>
</g>
<g>
</g>
<g>
</g>
</svg>
