<?xml version="1.0" encoding="iso-8859-1"?>
<!-- Generator: Adobe Illustrator 19.0.0, SVG Export Plug-In . SVG Version: 6.00 Build 0)  -->
<svg version="1.1" id="Capa_1" xmlns="http://www.w3.org/2000/svg" xmlns:xlink="http://www.w3.org/1999/xlink" x="0px" y="0px"
	 viewBox="0 0 511.999 511.999" style="enable-background:new 0 0 511.999 511.999;" xml:space="preserve">
<path style="fill:#FFBA40;" d="M428.636,128.615c8.786-58.645-25.907-112.449-77.489-120.178s-100.52,33.548-109.306,92.192
	s24.434,122.28,76.016,130.008C369.438,238.366,419.85,187.258,428.636,128.615z"/>
<path style="fill:#FFE17C;" d="M83.364,128.615C74.577,69.97,109.271,16.164,160.852,8.437s100.52,33.548,109.306,92.192
	c8.786,58.645-24.434,122.28-76.016,130.008C142.561,238.366,92.149,187.258,83.364,128.615z"/>
<path style="fill:#FFBA40;" d="M113.365,128.615c-8.64-57.67,24.766-110.657,74.931-119.753c-8.915-1.611-18.136-1.82-27.443-0.425
	c-51.581,7.728-86.275,61.533-77.489,120.178s59.197,109.751,110.778,102.023c1.5-0.225,2.982-0.501,4.45-0.819
	C156.888,221.08,120.683,177.466,113.365,128.615z"/>
<path style="fill:#F79E02;" d="M398.635,128.615c8.639-57.67-24.766-110.657-74.931-119.753c8.915-1.611,18.136-1.82,27.443-0.425
	c51.581,7.728,86.275,61.533,77.489,120.178c-8.786,58.645-59.197,109.751-110.778,102.023c-1.5-0.225-2.982-0.501-4.45-0.819
	C355.111,221.08,391.316,177.466,398.635,128.615z"/>
<g>
	<path style="fill:#F0484A;" d="M167.613,341.847c12.796-4.044-15.368-20.064-15.368-20.064l-21.499,6.795
		c0,0-13.841,29.295-1.045,25.251L167.613,341.847z"/>
	<path style="fill:#F0484A;" d="M344.386,341.847c-12.796-4.044,15.368-20.064,15.368-20.064l21.499,6.795
		c0,0,13.841,29.295,1.045,25.251L344.386,341.847z"/>
</g>
<path style="fill:#FD6064;" d="M16.369,242.661c-17.871-56.542,7.957-115.12,57.69-130.839s104.536,17.375,122.408,73.916
	s-4.962,124.599-54.695,140.318S34.241,299.203,16.369,242.661z"/>
<path style="fill:#F0484A;" d="M46.371,232.661c-15.872-50.214,2.727-102.033,41.923-124.012c-4.766,0.635-9.523,1.684-14.235,3.173
	c-49.732,15.719-75.562,74.297-57.69,130.839c17.871,56.542,75.671,99.113,125.403,83.394c5.499-1.738,10.667-4.118,15.491-7.05
	C111.307,323.462,62.526,283.772,46.371,232.661z"/>
<path style="fill:#FD6064;" d="M495.63,242.661c17.871-56.542-7.957-115.12-57.69-130.839s-104.536,17.375-122.408,73.916
	c-17.871,56.542,4.962,124.599,54.695,140.318S477.758,299.203,495.63,242.661z"/>
<path style="fill:#E7A7BF;" d="M275.88,385.911c13.42,0-8.606-23.762-8.606-23.762h-22.547c0,0-22.026,23.762-8.606,23.762H275.88z"
	/>
<path style="fill:#FBBED5;" d="M161.56,245.755c0-59.299,42.282-107.37,94.439-107.37s94.439,48.071,94.439,107.37
	S308.157,363.066,256,363.066S161.56,305.054,161.56,245.755z"/>
<path style="fill:#FAA0C2;" d="M191.562,255.756c0-59.299,42.282-107.37,94.439-107.37c3.807,0,7.56,0.264,11.251,0.762
	c-12.465-6.892-26.46-10.762-41.252-10.762c-52.157,0-94.439,48.071-94.439,107.37c0,56.443,38.308,111.715,86.976,116.909
	C215.018,343.363,191.562,299.92,191.562,255.756z"/>
<path style="fill:#F0484A;" d="M465.628,232.661c15.872-50.214-2.727-102.033-41.923-124.012c4.766,0.635,9.523,1.684,14.235,3.173
	c49.732,15.719,75.562,74.297,57.69,130.839c-17.871,56.542-75.671,99.113-125.403,83.394c-5.499-1.738-10.667-4.118-15.491-7.05
	C400.692,323.462,449.474,283.772,465.628,232.661z"/>
<path d="M210.323,287.973c4.142,0,7.5-3.358,7.5-7.5v-8.266c0-4.142-3.358-7.5-7.5-7.5s-7.5,3.358-7.5,7.5v8.266
	C202.823,284.615,206.181,287.973,210.323,287.973z"/>
<path d="M301.676,287.973c4.142,0,7.5-3.358,7.5-7.5v-8.266c0-4.142-3.358-7.5-7.5-7.5c-4.142,0-7.5,3.358-7.5,7.5v8.266
	C294.175,284.615,297.534,287.973,301.676,287.973z"/>
<path d="M256,292.386c6.558,0,12.726-2.753,16.921-7.552c2.726-3.119,2.407-7.857-0.711-10.583
	c-3.12-2.727-7.858-2.407-10.584,0.711c-1.346,1.54-3.396,2.424-5.626,2.424c-2.23,0-4.28-0.884-5.627-2.424
	c-2.725-3.118-7.463-3.437-10.583-0.71c-3.119,2.726-3.437,7.464-0.71,10.583C243.275,289.633,249.442,292.386,256,292.386z"/>
<path d="M62.874,317.625c18.272,12.564,37.651,19.08,56.404,19.237c-3.039,9.155-3.261,15.89-0.617,20.064
	c2.88,4.547,8.436,5.582,13.302,4.044l12.619-3.988c14.748,36.912,46.618,100.248,106.367,153.08
	c2.734,2.597,7.225,2.544,10.018,0.077c59.805-52.847,91.698-116.228,106.452-153.157l12.62,3.988
	c4.898,1.549,10.411,0.519,13.302-4.043c2.647-4.179,2.422-10.925-0.628-20.097c46.399-0.479,93.606-39.83,110.07-91.92
	c19.089-60.395-8.985-123.312-62.582-140.252c-0.959-0.303-1.925-0.583-2.891-0.854c-1.154-22.412-8.118-43.465-20.328-61.198
	c-2.349-3.412-7.019-4.273-10.431-1.924c-3.411,2.349-4.272,7.019-1.924,10.431c9.803,14.239,15.87,31.644,17.452,49.779
	c-41.052-4.061-79.418,19.515-100.561,53.833c-0.093,0.151-1.176,1.892-1.165,1.9c-12.259-11.285-26.531-19.103-41.979-22.98
	c1.454-14.659,0.634-29.593-2.662-43.958c-2.379-10.367-6.122-20.724-11.088-30.247c19.478-31.477,52.596-48.513,85.414-43.596
	c12.954,1.94,24.929,7.047,35.593,15.18c3.294,2.512,8,1.877,10.512-1.416c2.512-3.294,1.877-8-1.416-10.512
	c-12.697-9.682-26.984-15.768-42.466-18.087c-36.562-5.477-73.226,11.734-96.285,44.343c-22.509-31.694-58.749-49.957-96.232-44.343
	c-47.319,7.089-82.337,49.87-85.055,102.811c-0.963,0.271-1.928,0.537-2.886,0.84C18.203,121.598-9.871,184.515,9.218,244.91
	C18.411,273.997,37.968,300.501,62.874,317.625z M135.982,335.267c2.711-0.551,5.398-1.234,8.051-2.072
	c2.655-0.839,5.251-1.816,7.788-2.925c3.167,2,6.193,4.177,8.413,6.031l-27.676,8.747
	C133.312,342.253,134.538,338.728,135.982,335.267z M158.927,352.447l10.948-3.46c7.027-2.221,8.296-7.285,8.516-9.359
	c0.572-5.406-3.465-11.33-12.01-17.673c2.375-1.708,4.679-3.56,6.912-5.549c3.02,5.189,6.36,10.159,10.013,14.843
	c13.635,17.483,30.147,29.546,47.978,35.35c-6.22,8.611-8.279,15.467-6.105,20.444c0.834,1.912,3.571,6.357,10.941,6.357h12.38
	v93.93C199.44,439.558,172.228,385.466,158.927,352.447z M242.789,147.025c29.049-4.852,57.351,7.391,75.99,29.701
	c34.384,41.154,30.159,104.168-1.915,145.298c-14.154,18.149-31.656,29.45-50.153,32.614h-21.421
	c-18.497-3.163-36.001-14.465-50.153-32.614c-21.325-27.345-30.671-64.513-23.885-98.596c0.022-0.113,0.045-0.226,0.067-0.339
	c3.591-17.72,11.302-33.644,21.902-46.362c12.52-15.022,30.056-26.448,49.533-29.694
	C242.766,147.03,242.777,147.027,242.789,147.025z M270.512,378.399h-29.024c1.559-2.439,3.789-5.429,6.208-8.292
	c2.751,0.292,5.52,0.447,8.304,0.447c2.784,0,5.553-0.155,8.304-0.447C266.723,372.97,268.953,375.96,270.512,378.399z
	 M263.5,487.31v-93.91h12.38c7.369,0,10.106-4.446,10.941-6.357c2.173-4.977,0.114-11.833-6.105-20.444
	c17.831-5.803,34.344-17.867,47.978-35.35c3.652-4.684,6.993-9.653,10.013-14.843c2.233,1.989,4.537,3.842,6.913,5.549
	c-8.544,6.344-12.583,12.268-12.011,17.673c0.22,2.074,1.489,7.138,8.516,9.359l10.949,3.46
	C339.775,385.463,312.549,439.543,263.5,487.31z M351.764,336.301c2.221-1.854,5.246-4.032,8.414-6.031
	c2.537,1.109,5.133,2.086,7.788,2.925c2.641,0.834,5.329,1.517,8.052,2.066c1.447,3.461,2.674,6.989,3.426,9.789L351.764,336.301z
	 M488.478,240.389c-7.031,22.247-20.845,42.862-38.897,58.049c-17.938,15.092-38.437,23.402-57.732,23.402
	c-3.023,0-6.013-0.216-8.959-0.622l-20.222-6.391c-6.072-3.118-11.721-7.224-16.875-12.327c0.063-0.142,0.12-0.285,0.182-0.427
	c9.462-21.683,13.664-45.911,11.273-69.586c-2.335-23.128-11.213-46.133-26.129-64.412c1.636-3.03,3.409-5.995,5.327-8.855
	c21.378-31.879,61.057-52.279,99.233-40.258C481.389,133.409,505.074,187.882,488.478,240.389z M76.32,118.961
	c18.607-5.882,38.969-4.111,56.724,3.775c3.076,1.366,6.578,0.496,8.685-1.909c3.282-3.747,1.967-9.784-2.589-11.809
	c-2.169-0.964-4.39-1.839-6.619-2.654c-14.033-5.132-28.444-6.971-42.614-5.474c3.722-44.081,32.955-79.191,72.057-85.048
	c35.329-5.294,69.431,14.757,87.896,47.855c11.169,20.022,15.635,43.497,13.772,66.274c-0.033,0.404-0.077,0.809-0.114,1.213
	c-0.073-0.006-0.146-0.008-0.22-0.014c-7.836-0.627-15.763-0.234-23.5,1.159c-17.676,3.164-34.208,11.471-48.148,24.296
	c-0.074-0.125-0.154-0.245-0.228-0.369c-1.571-2.638-5.109-7.891-5.178-7.988c-5.58-7.923-12.028-15.097-19.297-21.43
	c-3.064-2.67-7.929-2.313-10.596,0.742c-2.721,3.123-2.394,7.86,0.729,10.582c9.512,8.287,17.608,18.51,23.632,29.595
	c0.058,0.105,0.108,0.215,0.166,0.32c-13.361,16.372-22.035,36.393-25.319,58.016c-3.392,21.584-0.945,44.084,6.093,64.717
	c1.34,3.928,2.872,7.871,4.554,11.69c-5.154,5.102-10.803,9.208-16.875,12.327l-20.309,6.418
	c-18.59,2.558-38.686-2.942-57.65-15.982c-22.205-15.268-39.646-38.913-47.852-64.875C6.926,187.882,30.611,133.409,76.32,118.961z"
	/>
<g>
</g>
<g>
</g>
<g>
</g>
<g>
</g>
<g>
</g>
<g>
</g>
<g>
</g>
<g>
</g>
<g>
</g>
<g>
</g>
<g>
</g>
<g>
</g>
<g>
</g>
<g>
</g>
<g>
</g>
</svg>
