<?xml version="1.0" encoding="iso-8859-1"?>
<!-- Generator: Adobe Illustrator 19.0.0, SVG Export Plug-In . SVG Version: 6.00 Build 0)  -->
<svg version="1.1" id="Capa_1" xmlns="http://www.w3.org/2000/svg" xmlns:xlink="http://www.w3.org/1999/xlink" x="0px" y="0px"
	 viewBox="0 0 512 512" style="enable-background:new 0 0 512 512;" xml:space="preserve">
<g>
	<path style="fill:#FAA0C2;" d="M228.872,108.525c-76.153,63.619-148.241,53.222-106.652-29.957
		C80.631-4.612,152.719-15.009,228.872,48.61V108.525z"/>
	<path style="fill:#FAA0C2;" d="M283.128,108.525c76.153,63.619,148.241,53.222,106.652-29.957
		c41.589-83.179-30.499-93.576-106.652-29.957V108.525z"/>
</g>
<g>
	<polygon style="fill:#FBBED5;" points="296.112,138.818 256,216.334 296.112,281.557 390.55,323.587 479.12,281.557 
		479.12,138.818 	"/>
	<path style="fill:#FBBED5;" d="M390.55,323.587l-94.438,38.184L256,423.9l40.112,80.6h145.847c20.525,0,37.161-16.635,37.161-37.15
		V361.771L390.55,323.587z"/>
	<polygon style="fill:#FBBED5;" points="215.888,138.818 32.88,138.818 32.88,281.557 121.45,323.587 215.888,281.557 256,216.334 	
		"/>
</g>
<polygon style="fill:#FAA0C2;" points="82.88,281.557 82.88,138.818 32.88,138.818 32.88,281.557 121.45,323.587 147.251,312.104 
	"/>
<path style="fill:#FBBED5;" d="M215.888,361.771l-94.438-38.184l-88.57,38.184V467.35c0,20.515,16.635,37.15,37.161,37.15h145.847
	L256,423.9L215.888,361.771z"/>
<path style="fill:#FAA0C2;" d="M82.88,467.35V361.771l64.372-27.752l-25.802-10.432l-88.57,38.184V467.35
	c0,20.515,16.635,37.15,37.161,37.15h50C99.515,504.5,82.88,487.865,82.88,467.35z"/>
<g>
	<rect x="215.89" y="138.82" style="fill:#F0484A;" width="80.22" height="365.68"/>
	<rect x="32.88" y="281.56" style="fill:#F0484A;" width="446.24" height="80.21"/>
</g>
<rect x="32.88" y="281.56" style="fill:#E33D41;" width="50" height="80.21"/>
<path style="fill:#FD6064;" d="M256,246.11c-97.249-95.042-257.66,56.008-12.863,192.203c7.992,4.446,17.734,4.446,25.726,0
	C513.66,302.118,353.249,151.068,256,246.11z"/>
<path style="fill:#FBBED5;" d="M267.008,44.553h-22.016c-18.786,0-34.014,15.229-34.014,34.014l0,0
	c0,18.786,15.229,34.014,34.014,34.014h22.016c18.786,0,34.014-15.229,34.014-34.014l0,0
	C301.023,59.782,285.794,44.553,267.008,44.553z"/>
<path style="fill:#FD6064;" d="M448.856,100.173H63.144c-29.7,0-53.777,24.077-53.777,53.777l0,0
	c0,12.989,10.529,23.518,23.518,23.518h446.23c12.989,0,23.518-10.529,23.518-23.518l0,0
	C502.633,124.25,478.557,100.173,448.856,100.173z"/>
<path style="fill:#F0484A;" d="M59.367,153.951L59.367,153.951c0-29.701,24.077-53.777,53.777-53.777h-50
	c-29.7,0-53.777,24.077-53.777,53.777l0,0c0,12.989,10.529,23.518,23.518,23.518h50C69.896,177.469,59.367,166.939,59.367,153.951z"
	/>
<path d="M204.058,340.487c4.142,0,7.5-3.358,7.5-7.5v-9.4c0-4.143-3.358-7.5-7.5-7.5s-7.5,3.357-7.5,7.5v9.4
	C196.558,337.129,199.916,340.487,204.058,340.487z"/>
<path d="M307.942,340.487c4.142,0,7.5-3.358,7.5-7.5v-9.4c0-4.143-3.358-7.5-7.5-7.5s-7.5,3.357-7.5,7.5v9.4
	C300.442,337.129,303.8,340.487,307.942,340.487z"/>
<path d="M256,345.505c7.161,0,13.892-3.002,18.467-8.236c2.726-3.119,2.408-7.857-0.711-10.583s-7.856-2.408-10.583,0.711
	c-1.726,1.975-4.341,3.108-7.173,3.108c-2.832,0-5.447-1.133-7.174-3.108c-2.726-3.119-7.464-3.437-10.583-0.71
	s-3.437,7.464-0.71,10.583C242.108,342.503,248.839,345.505,256,345.505z"/>
<path d="M441.959,512c24.626,0,44.661-20.03,44.661-44.65V184.045c13.488-3.365,23.513-15.579,23.513-30.095
	c0-33.788-27.489-61.277-61.277-61.277h-44.839c-1.615-4.523-3.582-9.24-5.894-14.107c9.196-19.385,16.904-44.838,5.974-62.524
	C395.902,2.783,381.359,0,370.602,0c-25.073,0-57.179,14.48-88.624,39.856c-4.647-1.804-9.693-2.804-14.969-2.804h-22.017
	c-5.277,0-10.322,1-14.969,2.803C198.577,14.48,166.472,0,141.398,0c-10.759,0-25.305,2.783-33.499,16.041
	c-10.929,17.684-3.219,43.139,5.978,62.525c-2.313,4.868-4.28,9.584-5.894,14.107H63.144c-33.789,0-61.277,27.489-61.277,61.277
	c0,14.516,10.025,26.73,23.514,30.095V467.35c0,24.62,20.035,44.65,44.66,44.65H441.959z M128.822,257.548
	c11.623-21.581,35.154-33.714,59.305-33.714c20.038,0,40.152,8.034,57.307,22.761c1.827,1.568,3.598,3.2,5.324,4.878
	c2.876,2.797,7.616,2.804,10.485,0c1.734-1.695,3.521-3.329,5.361-4.909c12.852-11.023,27.362-18.287,42.256-21.235
	c24.188-4.789,50.632,2.301,66.983,21.327c28.766,33.474,9.754,80.713-14.651,110.348c-24.136,29.31-55.877,51.668-88.533,70.532
	c-3.838,2.217-7.575,4.816-11.902,5.981c-3.076,0.774-6.345,0.779-9.424,0.02c-4.313-1.064-8.198-3.815-12.003-6.007
	c-32.588-18.826-64.43-41.271-88.521-70.526C128.771,330.235,110.717,291.158,128.822,257.548z M387.603,345.785
	c13.41-22.003,17.829-41.225,18.05-56.728h65.968v65.214h-89.54C382.781,353.263,386.485,347.621,387.603,345.785z M471.621,274.057
	h-67.087c-3.307-19.727-14.459-37.659-30.657-49.399c-16.833-12.2-38.238-17.368-58.832-15.382
	c-3.843,0.382-7.662,0.975-11.432,1.813v-26.12h168.009L471.621,274.057L471.621,274.057z M223.388,184.969h65.224v30.74
	c-11.605,4.591-22.533,11.355-32.611,20.183c-10.079-8.828-21.007-15.592-32.612-20.183v-30.74H223.388z M106.338,289.057
	c0.222,15.563,4.677,34.873,18.209,56.982c0.006,0.01,0.012,0.02,0.018,0.03c1.679,2.798,3.486,5.522,5.348,8.202H40.38v-65.214
	H106.338z M40.38,467.35v-98.079h101.125c16.756,19.691,39.129,38.709,66.883,56.862V497H70.041
	C53.686,497,40.38,483.699,40.38,467.35z M223.388,435.542c0.062,0.038,0.126,0.075,0.188,0.112
	c10.051,5.991,20.241,13.493,32.424,13.493c12.194,0,22.226-7.418,32.404-13.481c0.069-0.041,0.139-0.083,0.208-0.124V497h-65.224
	V435.542z M471.621,467.35c0,16.349-13.306,29.65-29.661,29.65H303.612v-70.868c27.753-18.152,50.124-37.17,66.879-56.861h101.13
	V467.35z M370.602,15c6.942,0,16.174,1.549,20.735,8.928c3.587,5.805,7.284,20.186-8.265,51.286c-1.056,2.111-1.056,4.597,0,6.708
	c1.847,3.695,3.482,7.287,4.894,10.752h-81.918c0.005-0.014,0.009-0.028,0.014-0.042c3.716-10.309,3.158-22.047-1.587-31.931
	c-0.023-0.049-0.045-0.099-0.069-0.147c-2.201-4.571-5.224-8.725-8.953-12.23C322.612,27.331,350.23,15,370.602,15z M267.008,52.053
	c10.413,0,20.351,6.598,24.416,16.178c3.334,7.857,2.535,17.227-1.993,24.443H222.57c-0.135-0.214-0.273-0.426-0.402-0.644
	c-4.731-8.017-4.855-18.296-0.295-26.421c4.642-8.27,13.636-13.556,23.119-13.556C244.992,52.053,267.002,52.053,267.008,52.053z
	 M128.928,75.213c-15.551-31.103-11.856-45.483-8.269-51.287c4.56-7.378,13.795-8.927,20.739-8.927
	c20.373,0,47.99,12.331,75.149,33.323c-4.185,3.934-7.518,8.735-9.766,14.019c-4.103,9.646-4.363,20.435-0.843,30.29
	c0.005,0.014,0.009,0.028,0.014,0.042h-81.918c1.412-3.465,3.047-7.057,4.894-10.752C129.984,79.81,129.984,77.325,128.928,75.213z
	 M108.218,169.969c-4.142,0-7.5,3.358-7.5,7.5c0,4.067,3.441,7.5,7.5,7.5h100.17v26.117c-0.588-0.131-1.177-0.23-1.765-0.35
	c-16.774-3.412-34.55-2.274-50.505,4.078c-22.914,9.073-40.998,28.474-47.225,52.474c-0.547,2.107-1.033,4.37-1.436,6.77H40.38
	V184.97c0,0,37.82,0,37.838,0c4.074,0,7.5-3.432,7.5-7.5c0-4.142-3.358-7.5-7.5-7.5H32.885c-8.833,0-16.019-7.186-16.019-16.019
	c0-25.517,20.76-46.277,46.277-46.277h385.712c25.518,0,46.277,20.76,46.277,46.277c0,8.833-7.186,16.018-16.018,16.018H108.218z"/>
<g>
</g>
<g>
</g>
<g>
</g>
<g>
</g>
<g>
</g>
<g>
</g>
<g>
</g>
<g>
</g>
<g>
</g>
<g>
</g>
<g>
</g>
<g>
</g>
<g>
</g>
<g>
</g>
<g>
</g>
</svg>
