<?xml version="1.0" encoding="iso-8859-1"?>
<!-- Generator: Adobe Illustrator 19.0.0, SVG Export Plug-In . SVG Version: 6.00 Build 0)  -->
<svg version="1.1" id="Capa_1" xmlns="http://www.w3.org/2000/svg" xmlns:xlink="http://www.w3.org/1999/xlink" x="0px" y="0px"
	 viewBox="0 0 512.001 512.001" style="enable-background:new 0 0 512.001 512.001;" xml:space="preserve">
<rect x="238.766" y="396.815" style="fill:#D5D6E3;" width="34.473" height="96.167"/>
<path style="fill:#FD6064;" d="M256,12.198c-40.52-39.6-107.805,25.083,0,81.588C363.806,37.281,296.521-27.402,256,12.198z"/>
<path style="fill:#F0484A;" d="M239.04,1.717c-37.351-11.913-74.803,40.433,10.529,88.569
	C203.956,49.646,215.489,10.282,239.04,1.717z"/>
<path style="fill:#ABACBC;" d="M238.764,448.245c5.677,0.383,11.431,0.589,17.237,0.589s11.559-0.206,17.237-0.589v-51.431h-34.473
	v51.431H238.764z"/>
<path style="fill:#F0484A;" d="M366.124,370.549c0,29.012-49.303,52.531-110.123,52.531s-110.123-23.519-110.123-52.531H366.124z"/>
<path style="fill:#E33D41;" d="M187.084,370.549h-41.207c0,29.012,49.303,52.531,110.123,52.531c7.042,0,13.928-0.319,20.604-0.922
	C225.634,417.556,187.084,396.201,187.084,370.549z"/>
<polygon style="fill:#EAEAF1;" points="104.03,209.008 104.03,137.28 119.065,116.845 384.318,116.845 407.971,137.28 
	407.971,209.008 256,238.904 "/>
<polygon style="fill:#CCCDD9;" points="134.936,209.008 134.936,137.28 149.97,116.845 119.065,116.845 104.03,137.28 
	104.03,209.008 256,238.904 271.453,235.864 "/>
<polygon style="fill:#EAEAF1;" points="439.641,363.709 439.641,263.596 417.834,238.904 98.955,238.904 72.36,263.596 
	72.36,363.709 "/>
<polygon style="fill:#CCCDD9;" points="140.163,238.904 98.956,238.904 72.361,263.596 72.361,363.709 113.569,363.709 
	113.569,263.596 "/>
<path style="fill:#FBBED5;" d="M389.706,92.105h-267.41c-19.413,0-35.151,15.737-35.151,35.151l0,0
	c0,8.667,9.277,14.174,16.886,10.024c10.525-5.741,23.246-5.741,33.771,0s23.246,5.741,33.771,0c10.525-5.741,23.246-5.741,33.771,0
	c10.525,5.741,23.246,5.741,33.771,0c10.525-5.741,23.246-5.741,33.771,0c10.525,5.741,23.246,5.741,33.771,0s23.246-5.741,33.771,0
	c10.525,5.741,23.246,5.741,33.771,0s23.246-5.741,33.771,0c7.609,4.151,16.886-1.357,16.886-10.024l0,0
	C424.856,107.842,409.119,92.105,389.706,92.105z"/>
<path style="fill:#FAA0C2;" d="M128.352,127.256L128.352,127.256c0-19.414,15.737-35.151,35.151-35.151h-41.207
	c-19.413,0-35.151,15.737-35.151,35.151l0,0c0,8.667,9.277,14.174,16.886,10.024c8.306-4.53,17.976-5.47,26.859-2.849
	C129.326,132.51,128.352,130.052,128.352,127.256z"/>
<path style="fill:#FBBED5;" d="M417.569,209.008H94.432c-23.458,0-42.475,19.017-42.475,42.475l0,0
	c0,10.473,11.21,17.128,20.405,12.113c12.719-6.937,28.09-6.937,40.809,0c12.719,6.937,28.09,6.937,40.809,0
	c12.719-6.937,28.09-6.937,40.809,0c12.719,6.937,28.09,6.937,40.809,0c12.719-6.937,28.09-6.937,40.809,0
	c12.719,6.937,28.09,6.937,40.809,0c12.719-6.937,28.09-6.937,40.809,0c12.719,6.937,28.09,6.937,40.809,0
	c12.719-6.937,28.09-6.937,40.809,0c9.194,5.015,20.405-1.64,20.405-12.113l0,0C460.044,228.025,441.027,209.008,417.569,209.008z"
	/>
<path style="fill:#FAA0C2;" d="M93.164,251.484L93.164,251.484c0-23.458,19.017-42.475,42.475-42.475H94.432
	c-23.458,0-42.475,19.016-42.475,42.475l0,0c0,10.474,11.21,17.128,20.405,12.113c7.045-3.844,14.906-5.548,22.678-5.132
	C93.857,256.453,93.164,254.087,93.164,251.484z"/>
<g>
	<path style="fill:#3A444A;" d="M187.373,316.717c-4.267,0-7.726-3.459-7.726-7.726v-12.421c0-4.267,3.459-7.726,7.726-7.726
		c4.267,0,7.726,3.459,7.726,7.726v12.421C195.099,313.257,191.64,316.717,187.373,316.717z"/>
	<path style="fill:#3A444A;" d="M324.628,316.717c-4.267,0-7.726-3.459-7.726-7.726v-12.421c0-4.267,3.459-7.726,7.726-7.726
		c4.267,0,7.726,3.459,7.726,7.726v12.421C332.354,313.257,328.895,316.717,324.628,316.717z"/>
	<path style="fill:#3A444A;" d="M256,325.897c-10.341,0-20.046-4.319-26.629-11.849c-2.808-3.213-2.481-8.094,0.732-10.902
		c3.213-2.807,8.094-2.481,10.902,0.732c3.648,4.173,9.112,6.566,14.994,6.566c5.881,0,11.346-2.393,14.994-6.566
		c2.808-3.213,7.689-3.541,10.902-0.731c3.213,2.808,3.541,7.689,0.731,10.902C276.046,321.577,266.34,325.897,256,325.897z"/>
</g>
<path style="fill:#FD6064;" d="M440.132,347.704H71.869c-21.003,0-38.03,17.027-38.03,38.031l0,0h444.324l0,0
	C478.162,364.73,461.135,347.704,440.132,347.704z"/>
<path style="fill:#F0484A;" d="M113.076,347.704H71.869c-21.003,0-38.031,17.027-38.031,38.031h41.207
	C75.046,364.73,92.073,347.704,113.076,347.704z"/>
<path style="fill:#ABACBC;" d="M296.493,473.969h-80.985c-21.003,0-38.03,17.027-38.03,38.03l0,0h157.046l0,0
	C334.523,490.997,317.496,473.969,296.493,473.969z"/>
<path style="fill:#9497A1;" d="M256.715,473.97h-41.207c-21.003,0-38.03,17.027-38.03,38.031l0,0h41.207l0,0
	C218.685,490.996,235.712,473.97,256.715,473.97z"/>
<g>
</g>
<g>
</g>
<g>
</g>
<g>
</g>
<g>
</g>
<g>
</g>
<g>
</g>
<g>
</g>
<g>
</g>
<g>
</g>
<g>
</g>
<g>
</g>
<g>
</g>
<g>
</g>
<g>
</g>
</svg>
