<svg viewBox="0 -26 512 512" xmlns="http://www.w3.org/2000/svg"><g fill-rule="evenodd"><path d="m54.332031 330.003906v100c0 10.949219 8.175781 19.914063 18.195313 19.996094l366.808594.003906.136718-.003906c10.019532-.082031 18.195313-9.046875 18.195313-19.996094v-183.277344h-403.335938zm0 0" fill="#7c594e"/><path d="m256.117188 90.003906c13.359374-.066406 24.164062-10.914062 24.164062-24.28125 0-4.742187-1.359375-9.167968-3.707031-12.90625-4.296875-6.835937-11.902344-11.378906-20.574219-11.378906-13.410156 0-24.28125 10.871094-24.28125 24.285156 0 13.367188 10.804688 24.21875 24.164062 24.28125zm0 0" fill="#ff6359"/><path d="m256.117188 90.003906c-.039063 0-.078126 0-.117188 0h-160c-11 0-20 9-20 20s9 20 20 20h53.15625v19.996094c0 11 9 20 20 20s20-9 20-20v-19.996094h226.84375c11 0 20-9 20-20s-9-20-20-20zm0 0" fill="#ffeeda"/><path d="m416 130.003906h-226.84375v19.996094c0 11-9 20-20 20s-20-9-20-20v-19.996094h-53.15625v90h320zm0 0" fill="#ffa6d5"/><path d="m378.222656 210.003906h-323.890625c-10.082031 0-18.332031 9-18.332031 20v80c0 11 8.25 20 18.332031 20s18.332031-9 18.332031-20v-29.761718c0-12.222657 9.167969-22.222657 20.371094-22.222657s20.371094 10 20.371094 22.222657v2.558593c0 12.222657 9.167969 22.222657 20.371094 22.222657s20.371094-10 20.371094-22.222657v-2.558593c0-12.222657 9.164062-22.222657 20.367187-22.222657 11.207031 0 20.371094 10 20.371094 22.222657v21.058593c0 12.222657 9.167969 22.222657 20.371093 22.222657 11.203126 0 20.371094-10 20.371094-22.222657v-21.058593c0-12.222657 9.164063-22.222657 20.371094-22.222657 11.203125 0 20.367188 10 20.367188 22.222657v2.558593c0 12.222657 9.167968 22.222657 20.371093 22.222657 11.207031 0 20.371094-10 20.371094-22.222657v-2.558593c0-12.222657 9.167969-22.222657 20.371094-22.222657s20.371093 10 20.371093 22.222657v101.058593c0 12.222657 9.167969 22.222657 20.371094 22.222657s20.371094-10 20.371094-22.222657v-101.058593c0-12.222657 9.164062-22.222657 20.367188-22.222657 11.203124 0 20.371093 10 20.371093 22.222657v29.761718c0 11 8.25 20 18.332031 20 10.082032 0 18.332032-9 18.332032-20v-80c0-11-8.25-20-18.332032-20zm0 0" fill="#f463a8"/></g><path d="m156.035156 200.003906h-.269531c-5.523437 0-10 4.476563-10 10 0 5.523438 4.476563 10 10 10h.269531c5.519532 0 10-4.476562 10-10 0-5.523437-4.476562-10-10-10zm0 0"/><path d="m398.59375 311.269531c-5.523438 0-10 4.476563-10 10v.265625c0 5.523438 4.476562 10 10 10 5.519531 0 10-4.476562 10-10v-.265625c0-5.523437-4.480469-10-10-10zm0 0"/><path d="m502 440h-35.957031c1.046875-3.128906 1.625-6.492188 1.625-9.996094v-91.9375c10.699219-4.289062 18.332031-15.25 18.332031-28.066406v-80c0-16.539062-12.710938-30-28.332031-30h-31.667969v-61.71875c11.640625-4.128906 20-15.242188 20-28.277344 0-16.542968-13.457031-30-30-30h-31.035156c-5.519532 0-10 4.476563-10 10 0 5.523438 4.480468 10 10 10h31.035156c5.515625 0 10 4.484375 10 10 0 5.511719-4.484375 10-10 10h-226.84375c-5.519531 0-10 4.476563-10 10v20c0 5.511719-4.484375 10-10 10-5.511719 0-10-4.488281-10-10v-20c0-5.523437-4.476562-10-10-10h-53.15625c-5.515625 0-10-4.488281-10-10 0-5.515625 4.484375-10 10-10h159.980469.019531.019531 59.980469c5.523438 0 10-4.476562 10-10 0-5.523437-4.476562-10-10-10h-28.84375c2-4.351562 3.128906-9.1875 3.128906-14.28125 0-3.300781-.480468-6.488281-1.351562-9.511718 14.160156-11.230469 21.480468-24.828126 15.058594-48.796876-1.429688-5.332031-6.910157-8.5-12.25-7.070312-5.332032 1.429688-8.5 6.914062-7.066407 12.246094 3.554688 13.28125 1.523438 19.886718-6.722656 26.824218-5.953125-4.976562-13.605469-7.976562-21.953125-7.976562-18.902344 0-34.28125 15.378906-34.28125 34.285156 0 5.09375 1.125 9.929688 3.128906 14.28125h-128.847656c-16.542969 0-30 13.457032-30 30 0 13.035156 8.359375 24.148438 20 28.277344v61.71875h-31.664062c-15.625 0-28.335938 13.460938-28.335938 30v80c0 12.816406 7.632812 23.777344 18.332031 28.066406v91.933594c0 3.507812.578125 6.871094 1.625 10h-35.957031c-5.523438 0-10 4.476562-10 10s4.476562 10 10 10h492c5.523438 0 10-4.476562 10-10s-4.476562-10-10-10zm-260.28125-374.277344c0-7.878906 6.40625-14.285156 14.28125-14.285156s14.28125 6.40625 14.28125 14.285156c0 7.871094-6.398438 14.273438-14.273438 14.28125h-.019531c-7.871093-.007812-14.269531-6.410156-14.269531-14.28125zm-177.386719 364.28125v-91.9375c10.703125-4.289062 18.335938-15.25 18.335938-28.066406v-29.757812c0-6.625 4.746093-12.222657 10.367187-12.222657s10.371094 5.597657 10.371094 12.222657v2.554687c0 17.769531 13.625 32.222656 30.371094 32.222656s30.371094-14.453125 30.371094-32.222656v-2.554687c0-6.625 4.75-12.222657 10.371093-12.222657 5.621094 0 10.367188 5.597657 10.367188 12.222657v21.054687c0 17.769531 13.625 32.222656 30.371093 32.222656 16.746094 0 30.371094-14.453125 30.371094-32.222656v-21.054687c0-6.625 4.75-12.222657 10.371094-12.222657s10.367188 5.597657 10.367188 12.222657v2.554687c0 17.769531 13.625 32.222656 30.371093 32.222656 16.746094 0 30.371094-14.453125 30.371094-32.222656v-2.554687c0-6.625 4.75-12.222657 10.371094-12.222657 5.621093 0 10.371093 5.597657 10.371093 12.222657v101.058593c0 17.769531 13.621094 32.222657 30.371094 32.222657 16.746094 0 30.367188-14.457032 30.367188-32.222657v-31.035156c0-5.523437-4.476563-10-10-10-5.519532 0-10 4.476563-10 10v31.035156c0 6.625-4.746094 12.222657-10.367188 12.222657-5.625 0-10.371094-5.597657-10.371094-12.222657v-101.058593c0-17.765626-13.625-32.222657-30.371093-32.222657-16.746094 0-30.371094 14.457031-30.371094 32.222657v2.554687c0 6.625-4.75 12.222656-10.371094 12.222656-5.621093 0-10.371093-5.597656-10.371093-12.222656v-2.554687c0-17.765626-13.621094-32.222657-30.367188-32.222657s-30.371094 14.457031-30.371094 32.222657v21.058593c0 6.625-4.75 12.222657-10.371094 12.222657-5.621093 0-10.371093-5.597657-10.371093-12.222657v-21.058593c0-17.765626-13.621094-32.222657-30.367188-32.222657-16.746093 0-30.371093 14.457031-30.371093 32.222657v2.554687c0 6.625-4.75 12.222656-10.371094 12.222656s-10.371094-5.597656-10.371094-12.222656v-2.554687c0-17.765626-13.625-32.222657-30.371094-32.222657s-30.367187 14.457031-30.367187 32.222657v29.761718c0 5.417969-3.816407 10-8.332031 10-4.519532 0-8.335938-4.582031-8.335938-10v-80c0-5.421875 3.816406-10 8.335938-10h72.699218c5.523438 0 10-4.476562 10-10 0-5.523437-4.476562-10-10-10h-21.035156v-60h33.15625v10c0 16.539063 13.460938 30 30 30 16.542969 0 30-13.460937 30-30v-10h206.84375v60h-210c-5.523438 0-10 4.476563-10 10 0 5.523438 4.476562 10 10 10h261.667969c4.515625 0 8.332031 4.578125 8.332031 10v80c0 5.417969-3.816406 10-8.332031 10-4.519531 0-8.332031-4.582031-8.332031-10v-29.761718c0-17.765626-13.625-32.222657-30.371094-32.222657s-30.371094 14.457031-30.371094 32.222657v1.058593c0 5.523438 4.476562 10 10 10 5.519531 0 10-4.476562 10-10v-1.058593c0-6.625 4.75-12.222657 10.371094-12.222657s10.371094 5.597657 10.371094 12.222657v29.761718c0 12.816406 7.628906 23.773438 18.332031 28.0625v32.234375l-13.589844 12.804688c-4.019531 3.789062-4.207031 10.117187-.421875 14.136719 1.96875 2.089843 4.621094 3.140624 7.28125 3.140624 2.40625 0 4.816406-.867187 6.726562-2.613281v32.234375c0 5.414063-3.808593 9.992188-8.324218 9.996094h-366.683594c-4.511719-.003906-8.324219-4.582031-8.324219-9.996094zm0 0"/><path d="m231.839844 382.488281c-.101563 0-.203125-.003906-.304688-.003906-5.382812 0-9.828125 4.285156-9.988281 9.707031l-.34375 11.625c-.164063 5.519532 4.179687 10.128906 9.699219 10.292969.101562 0 .199218.003906.300781.003906 5.386719 0 9.828125-4.285156 9.988281-9.707031l.34375-11.625c.164063-5.519531-4.175781-10.128906-9.695312-10.292969zm0 0"/><path d="m299.25 353.738281-10.242188 5.511719c-4.863281 2.617188-6.683593 8.683594-4.0625 13.546875 1.808594 3.355469 5.253907 5.261719 8.8125 5.261719 1.601563 0 3.226563-.386719 4.730469-1.199219l10.242188-5.511719c4.863281-2.621094 6.683593-8.683594 4.0625-13.546875-2.617188-4.863281-8.683594-6.679687-13.542969-4.0625zm0 0"/><path d="m178.605469 346.476562-11.625-.347656c-5.511719-.148437-10.128907 4.179688-10.292969 9.699219-.164062 5.523437 4.175781 10.128906 9.699219 10.292969l11.625.34375c.101562.003906.203125.007812.304687.007812 5.382813 0 9.828125-4.285156 9.988282-9.703125.164062-5.523437-4.175782-10.128906-9.699219-10.292969zm0 0"/><path d="m117.808594 378.84375c-4.699219-2.90625-10.863282-1.445312-13.765625 3.253906l-6.109375 9.894532c-2.902344 4.699218-1.445313 10.859374 3.25 13.761718 1.640625 1.011719 3.453125 1.496094 5.246094 1.496094 3.351562 0 6.628906-1.6875 8.519531-4.75l6.109375-9.894531c2.902344-4.699219 1.445312-10.859375-3.25-13.761719zm0 0"/><path d="m247.6875 183.457031c1.640625 1.015625 3.453125 1.496094 5.246094 1.496094 3.351562 0 6.628906-1.6875 8.519531-4.746094l6.109375-9.898437c2.902344-4.699219 1.445312-10.859375-3.25-13.761719-4.703125-2.902344-10.863281-1.445313-13.765625 3.253906l-6.109375 9.894531c-2.902344 4.699219-1.445312 10.863282 3.25 13.761719zm0 0"/><path d="m336.554688 177.910156 11.140624 3.34375c.957032.285156 1.925782.421875 2.878907.421875 4.300781 0 8.273437-2.796875 9.574219-7.128906 1.585937-5.289063-1.417969-10.863281-6.707032-12.449219l-11.140625-3.34375c-5.289062-1.585937-10.863281 1.414063-12.453125 6.703125-1.585937 5.289063 1.417969 10.867188 6.707032 12.453125zm0 0"/><path d="m355.964844 100.003906h.269531c5.523437 0 10-4.476562 10-10 0-5.523437-4.476563-10-10-10h-.269531c-5.519532 0-10 4.476563-10 10 0 5.523438 4.476562 10 10 10zm0 0"/></svg>