<svg viewBox="-45 1 511 511.99999" xmlns="http://www.w3.org/2000/svg"><g fill-rule="evenodd"><path d="m170.5 62c0 22.09375 17.910156 40 40 40s40-17.90625 40-40c0-4.089844-.613281-8.035156-1.757812-11.753906-5.019532-16.355469-20.242188-28.246094-38.242188-28.246094-22.089844 0-40 17.910156-40 40zm0 0" fill="#7c594e"/><path d="m210.5 102h-180c-10.996094 0-20 9.003906-20 20v22.140625c100.8125 44.960937 98.667969-49.691406 225.84375 6 8.984375 3.933594 17.644531 6.363281 26 7.644531v44.554688c0 10.886718 8.910156 19.800781 19.800781 19.800781s19.800781-8.910156 19.800781-19.800781v-46.210938c45.890626-10.089844 80.875-42.46875 108.554688-13.988281v-20.136719c0-11-9-20-20-20h-180zm0 0" fill="#ffeeda"/><path d="m236.34375 150.140625c-127.175781-55.691406-125.03125 38.960937-225.84375-6v55.210937c16.074219 0 32.425781-7.011718 50.75-7.011718 13.800781 0 38.285156 7.011718 52.085938 7.011718 18.25 0 36.503906-7.011718 54.757812-7.011718 16.46875 0 32.941406 7.011718 49.414062 7.011718 14.945313 0 29.890626-4.703124 44.839844-6.40625v-35.160156c-8.359375-1.28125-17.019531-3.710937-26.003906-7.644531zm0 0" fill="#ff6359"/><path d="m301.945312 156.125v40.761719c6.578126 1.34375 13.152344 2.460937 19.730469 2.460937 14.246094 0 28.488281-7.007812 42.734375-7.007812 15.363282 0 30.726563 7.007812 46.089844 7.007812v-57.207031c-27.679688-28.480469-62.664062 3.898437-108.554688 13.984375zm0 0" fill="#ff6359"/><path d="m321.675781 199.347656c-6.578125 0-13.152343-1.117187-19.730469-2.460937v5.453125c0 10.886718-8.910156 19.796875-19.800781 19.796875s-19.800781-8.910157-19.800781-19.796875v-9.394532c-14.945312 1.703126-29.894531 6.402344-44.839844 6.402344-16.46875 0-32.941406-7.007812-49.414062-7.007812-18.25 0-36.503906 7.007812-54.753906 7.007812-13.800782 0-38.285157-7.007812-52.085938-7.007812-18.324219 0-34.675781 7.007812-50.75 7.007812v80.171875c15.363281 0 30.726562 7.011719 46.085938 7.011719 14.246093 0 28.492187-7.011719 42.738281-7.011719 16.472656 0 32.941406 7.011719 49.414062 7.011719 18.25 0 36.503907-7.011719 54.753907-7.011719 16.472656 0 32.945312 7.011719 49.414062 7.011719 18.253906 0 36.503906-7.011719 54.757812-7.011719 13.800782 0 38.285157 7.011719 52.085938 7.011719 18.324219 0 34.675781-7.011719 50.75-7.011719v-80.171875c-15.363281 0-30.726562-7.007812-46.089844-7.007812-14.246094 0-28.488281 7.007812-42.734375 7.007812zm0 0" fill="#ffb86e"/><path d="m307.664062 279.519531c-18.253906 0-36.503906 7.011719-54.757812 7.011719-16.472656 0-32.941406-7.011719-49.414062-7.011719-18.25 0-36.503907 7.011719-54.753907 7.011719-16.472656 0-32.945312-7.011719-49.414062-7.011719-14.246094 0-28.492188 7.011719-42.738281 7.011719-15.359376 0-30.722657-7.011719-46.085938-7.011719v81.511719c15.363281 0 30.726562-7.011719 46.085938-7.011719 14.246093 0 28.492187 7.011719 42.738281 7.011719 16.472656 0 32.941406-7.011719 49.414062-7.011719 18.25 0 36.503907 7.011719 54.753907 7.011719 16.472656 0 32.945312-7.011719 49.414062-7.011719 18.253906 0 36.503906 7.011719 54.757812 7.011719 13.800782 0 38.285157-7.011719 52.085938-7.011719 18.324219 0 34.675781 7.011719 50.75 7.011719v-81.511719c-16.074219 0-32.425781 7.011719-50.75 7.011719-13.800781 0-38.285156-7.011719-52.085938-7.011719zm0 0" fill="#a6f074"/><path d="m307.664062 361.03125c-18.253906 0-36.503906-7.011719-54.757812-7.011719-16.472656 0-32.941406 7.011719-49.414062 7.011719-18.25 0-36.503907-7.011719-54.753907-7.011719-16.472656 0-32.945312 7.011719-49.414062 7.011719-14.246094 0-28.492188-7.011719-42.738281-7.011719-15.359376 0-30.722657 7.011719-46.085938 7.011719v69.222656c16.074219 0 32.425781 7.011719 50.75 7.011719 13.800781 0 38.285156-7.011719 52.085938-7.011719 18.25 0 36.503906 7.011719 54.753906 7.011719 16.472656 0 32.945312-7.011719 49.414062-7.011719 18.253906 0 36.503906 7.011719 54.757813 7.011719 16.46875 0 32.941406-7.011719 49.410156-7.011719 14.246094 0 28.492187 7.011719 42.738281 7.011719 15.363282 0 30.726563-7.011719 46.085938-7.011719v-69.222656c-16.074219 0-32.425782-7.011719-50.75-7.011719-13.796875 0-38.28125 7.011719-52.082032 7.011719zm0 0" fill="#53c9d8"/><path d="m272.261719 437.265625c-18.253907 0-36.503907-7.011719-54.757813-7.011719-16.46875 0-32.941406 7.011719-49.414062 7.011719-18.25 0-36.503906-7.011719-54.753906-7.011719-13.800782 0-38.285157 7.011719-52.085938 7.011719-18.324219 0-34.675781-7.011719-50.75-7.011719v71.746094h399.996094v-71.746094c-15.359375 0-30.722656 7.011719-46.085938 7.011719-14.246094 0-28.492187-7.011719-42.738281-7.011719-16.46875 0-32.941406 7.011719-49.410156 7.011719zm0 0" fill="#f463a8"/></g><path d="m420.5 122c0-16.539062-13.460938-30-30-30h-15.28125c-5.523438 0-10 4.480469-10 10 0 5.523438 4.476562 10 10 10h15.28125c5.511719 0 10 4.488281 10 10v1.566406c-19.546875-7.410156-41.046875 1.242188-62.003906 9.691406-12.308594 4.964844-25.035156 10.101563-38.699219 13.101563-4.585937 1.007813-7.851563 5.070313-7.851563 9.769531v40.730469.085937 5.394532c0 5.402344-4.394531 9.800781-9.800781 9.800781-5.402343 0-9.800781-4.398437-9.800781-9.800781v-9.5c0-.003906 0-.003906 0-.003906v-35.050782c0-4.9375-3.601562-9.132812-8.480469-9.882812-7.867187-1.207032-15.777343-3.535156-23.507812-6.921875-70.96875-31.078125-105.085938-17.375-135.1875-5.289063-23.976563 9.632813-44.855469 17.988282-84.667969 1.828125v-15.515625c0-5.515625 4.488281-10 10-10h275.753906c5.523438 0 10-4.480468 10-10 0-5.523437-4.476562-10-10-10h-55.78125c6.292969-8.363281 10.027344-18.753906 10.027344-30 0-24.148437-17.207031-44.351562-40-48.996094v-3.007812c0-5.523438-4.476562-10-10-10s-10 4.476562-10 10v3.007812c-22.792969 4.644532-40 24.847657-40 48.992188 0 11.25 3.734375 21.640625 10.027344 30h-140.027344c-16.542969 0-30 13.460938-30 30v380c0 5.523438 4.476562 10 10 10h41.035156c5.523438 0 10-4.476562 10-10s-4.476562-10-10-10h-31.035156v-50.855469c3.765625.585938 7.652344 1.394531 11.660156 2.230469 9.140625 1.914062 18.59375 3.890625 29.089844 3.890625 7.808594 0 17.992188-1.863281 27.84375-3.667969 8.972656-1.644531 18.25-3.34375 24.242188-3.34375 8.171874 0 16.585937 1.617188 25.492187 3.328125 9.429687 1.8125 19.183594 3.683594 29.261719 3.683594 9.289062 0 18.1875-1.894531 26.789062-3.722656 7.941406-1.691407 15.441406-3.289063 22.625-3.289063 8.175782 0 16.585938 1.617188 25.492188 3.328125 9.433594 1.8125 19.1875 3.683594 29.265625 3.683594 9.289062 0 18.183593-1.894531 26.789062-3.722656 7.941407-1.691407 15.441407-3.289063 22.625-3.289063 5.910157 0 12.257813 1.5625 18.976563 3.214844 7.582031 1.867188 15.421875 3.796875 23.757812 3.796875 8.808594 0 17.175782-1.910156 25.269532-3.757813 3.707031-.84375 7.3125-1.664062 10.820312-2.273437v50.765625h-280c-5.523438 0-10 4.476562-10 10s4.476562 10 10 10h290c5.519531 0 10-4.476562 10-10zm-240-60c0-16.542969 13.457031-30 30-30s30 13.457031 30 30-13.457031 30-30 30-30-13.457031-30-30zm-160 228.5c3.503906.605469 7.109375 1.429688 10.820312 2.273438 8.089844 1.847656 16.460938 3.757812 25.265626 3.757812 8.335937 0 16.179687-1.929688 23.757812-3.796875 6.722656-1.652344 13.070312-3.214844 18.980469-3.214844 7.183593 0 14.683593 1.597657 22.625 3.289063 8.601562 1.828125 17.5 3.722656 26.789062 3.722656 10.078125 0 19.832031-1.871094 29.265625-3.683594 8.90625-1.710937 17.316406-3.328125 25.492188-3.328125 7.183594 0 14.683594 1.597657 22.621094 3.289063 8.605468 1.828125 17.503906 3.722656 26.789062 3.722656 10.078125 0 19.832031-1.871094 29.265625-3.683594 8.90625-1.710937 17.316406-3.328125 25.492187-3.328125 5.992188 0 15.269532 1.699219 24.242188 3.34375 9.847656 1.804688 20.035156 3.667969 27.84375 3.667969 10.496094 0 19.949219-1.976562 29.085938-3.890625 4.007812-.835937 7.898437-1.644531 11.664062-2.234375v59.738281c-3.765625-.589843-7.65625-1.394531-11.664062-2.234375-9.136719-1.914062-18.589844-3.890625-29.085938-3.890625-7.808594 0-17.996094 1.863281-27.84375 3.667969-8.972656 1.644531-18.25 3.34375-24.242188 3.34375-8.171874 0-16.585937-1.617188-25.492187-3.324219-9.433594-1.8125-19.1875-3.6875-29.265625-3.6875-9.285156 0-18.183594 1.894531-26.789062 3.726563-7.9375 1.6875-15.4375 3.285156-22.621094 3.285156-8.175782 0-16.585938-1.617188-25.492188-3.324219-9.433594-1.8125-19.1875-3.6875-29.265625-3.6875-9.289062 0-18.1875 1.894531-26.789062 3.726563-7.941407 1.6875-15.441407 3.285156-22.625 3.285156-5.910157 0-12.257813-1.5625-18.980469-3.214844-7.582031-1.867187-15.421875-3.796875-23.757812-3.796875-8.804688 0-17.175782 1.910157-25.265626 3.757813-3.710937.84375-7.316406 1.667968-10.820312 2.273437zm325.476562-138.691406c26.371094-10.636719 41.550782-15.960938 54.519532-5.304688v41.867188c-3.503906-.609375-7.109375-1.429688-10.816406-2.277344-8.09375-1.847656-16.460938-3.753906-25.269532-3.753906-8.335937 0-16.175781 1.929687-23.757812 3.792968-6.71875 1.65625-13.070313 3.21875-18.980469 3.21875-3.199219 0-6.476563-.332031-9.726563-.816406v-24.585937c12.292969-3.375 23.730469-7.988281 34.03125-12.140625zm-63.832031 80.328125c14.273438 0 26.226563-10.085938 29.125-23.503907 3.386719.433594 6.859375.71875 10.40625.71875 8.332031 0 16.175781-1.929687 23.757813-3.796874 6.71875-1.652344 13.066406-3.214844 18.976562-3.214844 6.554688 0 13.484375 1.578125 20.820313 3.253906 4.972656 1.132812 10.050781 2.289062 15.265625 3.011719v61.601562c-5.34375.683594-10.605469 1.78125-15.753906 2.859375-8.144532 1.703125-16.566407 3.464844-24.996094 3.464844-5.992188 0-15.265625-1.699219-24.238282-3.34375-9.851562-1.800781-20.035156-3.667969-27.84375-3.667969-10.078124 0-19.832031 1.875-29.265624 3.6875-8.90625 1.707031-17.316407 3.324219-25.492188 3.324219-7.183594 0-14.683594-1.597656-22.625-3.285156-8.601562-1.832032-17.5-3.726563-26.789062-3.726563-10.078126 0-19.832032 1.875-29.265626 3.6875-8.902343 1.707031-17.316406 3.324219-25.488281 3.324219-7.183593 0-14.6875-1.597656-22.625-3.285156-8.605469-1.832032-17.5-3.726563-26.789062-3.726563-8.335938 0-16.175781 1.929688-23.757813 3.796875-6.722656 1.652344-13.070312 3.214844-18.980468 3.214844-6.554688 0-13.480469-1.582031-20.816407-3.253906-4.972656-1.136719-10.050781-2.289063-15.269531-3.015625v-61.597657c5.34375-.683593 10.605469-1.78125 15.753906-2.859374 8.148438-1.703126 16.570313-3.464844 24.996094-3.464844 5.992188 0 15.269531 1.699218 24.238281 3.339844 9.851563 1.804687 20.039063 3.671874 27.84375 3.671874 10.078125 0 19.832031-1.875 29.265625-3.6875 8.90625-1.707031 17.316406-3.324218 25.492188-3.324218 7.183594 0 14.683594 1.597656 22.625 3.285156 8.605468 1.832031 17.5 3.726562 26.789062 3.726562 10.078125 0 19.832032-1.875 29.265625-3.683593 1.925781-.371094 3.804688-.726563 5.667969-1.070313 1.160156 15.378906 14.035156 27.539063 29.707031 27.539063zm-169.523437-77.886719c29.019531-11.652344 56.429687-22.664062 119.710937 5.050781 6.570313 2.878907 13.273438 5.125 20.011719 6.714844v18.285156c-3.15625.539063-6.277344 1.132813-9.34375 1.722657-8.90625 1.710937-17.320312 3.328124-25.496094 3.328124-7.183594 0-14.683594-1.597656-22.625-3.289062-8.601562-1.832031-17.5-3.722656-26.789062-3.722656-10.078125 0-19.832032 1.871094-29.261719 3.683594-8.90625 1.710937-17.320313 3.328124-25.492187 3.328124-5.992188 0-15.269532-1.699218-24.242188-3.34375-9.851562-1.804687-20.035156-3.667968-27.84375-3.667968-10.496094 0-19.949219 1.976562-29.089844 3.886718-4.007812.839844-7.894531 1.648438-11.660156 2.234376v-29.535157c42.683594 15.175781 67.78125 5.101563 92.121094-4.675781zm272.609375 269.761719c-7.335938 1.671875-14.265625 3.253906-20.820313 3.253906-5.910156 0-12.257812-1.5625-18.976562-3.214844-7.585938-1.867187-15.425782-3.796875-23.761719-3.796875-9.285156 0-18.183594 1.894532-26.785156 3.726563-7.941407 1.6875-15.445313 3.285156-22.625 3.285156-8.175781 0-16.585938-1.617187-25.492188-3.324219-9.433593-1.8125-19.1875-3.6875-29.265625-3.6875-9.289062 0-18.183594 1.894532-26.789062 3.726563-7.941406 1.6875-15.441406 3.285156-22.625 3.285156-8.175782 0-16.585938-1.617187-25.492188-3.324219-9.433594-1.8125-19.1875-3.6875-29.261718-3.6875-7.808594 0-17.996094 1.867188-27.84375 3.667969-8.972657 1.644531-18.25 3.34375-24.242188 3.34375-8.425781 0-16.847656-1.761719-24.992188-3.464844-5.152343-1.078125-10.410156-2.175781-15.757812-2.859375v-50.652344c5.21875-.722656 10.296875-1.878906 15.269531-3.011718 7.335938-1.675782 14.265625-3.257813 20.820313-3.257813 5.910156 0 12.257812 1.5625 18.976562 3.21875 7.582032 1.863281 15.421875 3.792969 23.757813 3.792969 9.289062 0 18.183593-1.894531 26.789062-3.722656 7.941407-1.691406 15.441407-3.289063 22.625-3.289063 8.175781 0 16.585938 1.617188 25.492188 3.328125 9.433593 1.8125 19.1875 3.683594 29.265625 3.683594 9.285156 0 18.183594-1.894531 26.789062-3.722656 7.941406-1.691406 15.441406-3.289063 22.625-3.289063 8.171875 0 16.585938 1.617188 25.492188 3.328125 9.429687 1.8125 19.183594 3.683594 29.261718 3.683594 7.808594 0 17.996094-1.863281 27.84375-3.667969 8.972657-1.644531 18.25-3.34375 24.242188-3.34375 8.425781 0 16.847656 1.761719 24.992188 3.46875 5.152343 1.078125 10.410156 2.175781 15.757812 2.855469v50.652344c-5.21875.726562-10.296875 1.878906-15.269531 3.015625zm0 0"/><path d="m296.847656 468.269531v-.269531c0-5.523438-4.476562-10-10-10-5.523437 0-10 4.476562-10 10v.269531c0 5.519531 4.476563 10 10 10 5.523438 0 10-4.480469 10-10zm0 0"/><path d="m129.347656 234.144531c-5.523437 0-10 4.476563-10 10v.269531c0 5.519532 4.476563 10 10 10 5.523438 0 10-4.480468 10-10v-.269531c0-5.523437-4.476562-10-10-10zm0 0"/><path d="m158.847656 379.035156c-5.523437 0-10 4.480469-10 10v.269532c0 5.523437 4.476563 10 10 10 5.523438 0 10-4.476563 10-10v-.269532c0-5.519531-4.476562-10-10-10zm0 0"/><path d="m358.34375 242.410156c5.523438 0 10-4.476562 10-10v-.269531c0-5.519531-4.476562-10-10-10-5.519531 0-10 4.480469-10 10v.269531c0 5.523438 4.480469 10 10 10zm0 0"/><path d="m80.535156 492h-.269531c-5.523437 0-10 4.476562-10 10s4.476563 10 10 10h.269531c5.523438 0 10-4.476562 10-10s-4.476562-10-10-10zm0 0"/><path d="m346.21875 112h.269531c5.523438 0 10-4.476562 10-10 0-5.519531-4.476562-10-10-10h-.269531c-5.523438 0-10 4.480469-10 10 0 5.523438 4.476562 10 10 10zm0 0"/><path d="m229.847656 331.769531c5.519532 0 10-4.480469 10-10v-.269531c0-5.523438-4.480468-10-10-10-5.523437 0-10 4.476562-10 10v.269531c0 5.519531 4.476563 10 10 10zm0 0"/><path d="m63.347656 322.414062c5.519532 0 10-4.476562 10-10v-.269531c0-5.523437-4.480468-10-10-10-5.523437 0-10 4.476563-10 10v.269531c0 5.523438 4.476563 10 10 10zm0 0"/><path d="m126.847656 461.039062v-.273437c0-5.519531-4.476562-10-10-10-5.523437 0-10 4.480469-10 10v.273437c0 5.519532 4.476563 10 10 10 5.523438 0 10-4.480468 10-10zm0 0"/><path d="m361.347656 385.5c-5.523437 0-10 4.476562-10 10v.269531c0 5.519531 4.476563 10 10 10 5.523438 0 10-4.480469 10-10v-.269531c0-5.523438-4.476562-10-10-10zm0 0"/></svg>