<svg viewBox="0 -18 512.00075 512" xmlns="http://www.w3.org/2000/svg"><path d="m426.40625 426.863281h-341.101562c-10.550782 0-19.105469 9.066407-19.105469 20.25 0 11.183594 8.554687 20.25 19.105469 20.25h341.101562c10.554688 0 19.109375-9.066406 19.109375-20.25 0-11.183593-8.554687-20.25-19.109375-20.25zm0 0" fill="#b7e9f9"/><path d="m86.199219 447.113281c0-11.183593 8.554687-20.25 19.105469-20.25h-20c-10.550782 0-19.105469 9.066407-19.105469 20.25 0 11.183594 8.554687 20.25 19.105469 20.25h20c-10.550782 0-19.105469-9.066406-19.105469-20.25zm0 0" fill="#87cee9"/><path d="m257.855469 90.3125h-178.09375c-11.769531 0-21.398438 9.628906-21.398438 21.398438v257.824218c0 11.769532 9.628907 21.398438 21.398438 21.398438h178.09375zm0 0" fill="#d3843d"/><path d="m78.363281 369.535156v-257.824218c0-11.769532 9.628907-21.398438 21.398438-21.398438h-20c-11.769531 0-21.398438 9.628906-21.398438 21.398438v257.824218c0 11.769532 9.628907 21.398438 21.398438 21.398438h20c-11.769531 0-21.398438-9.628906-21.398438-21.398438zm0 0" fill="#c65c38"/><path d="m86.984375 240.625h168.871094v40.960938h-168.871094zm0 0" fill="#87cee9"/><path d="m86.984375 360.523438c0 2.453124 1.988281 4.441406 4.4375 4.441406h164.433594v-42.417969h-168.871094zm0 0" fill="#fff69a"/><path d="m106.984375 360.523438v-37.976563h-20v37.976563c0 2.453124 1.988281 4.441406 4.4375 4.441406h20.003906c-2.453125 0-4.441406-1.988282-4.441406-4.441406zm0 0" fill="#ffd782"/><path d="m86.984375 281.585938h168.871094v40.960937h-168.871094zm0 0" fill="#c8d952"/><path d="m86.984375 198.9375h168.871094v41.6875h-168.871094zm0 0" fill="#32b1cc"/><path d="m91.421875 116.285156c-2.449219 0-4.4375 1.988282-4.4375 4.4375v37.25h168.871094v-41.6875zm0 0" fill="#ea5471"/><path d="m111.425781 116.285156h-20.003906c-2.449219 0-4.4375 1.988282-4.4375 4.4375v37.25h20v-37.25c0-2.449218 1.988281-4.4375 4.441406-4.4375zm0 0" fill="#da1c4b"/><path d="m86.984375 157.972656h168.871094v40.960938h-168.871094zm0 0" fill="#fdbd40"/><path d="m86.984375 240.625h20v40.960938h-20zm0 0" fill="#32b1cc"/><path d="m86.984375 281.585938h20v40.960937h-20zm0 0" fill="#8ec13f"/><path d="m86.984375 198.9375h20v41.6875h-20zm0 0" fill="#1695b7"/><path d="m86.984375 157.972656h20v40.960938h-20zm0 0" fill="#f2aa2a"/><path d="m154.769531 20.855469c-9.074219-18.148438-34.972656-18.148438-44.046875 0l-16.910156 33.824219c-8.1875 16.371093 3.71875 35.632812 22.019531 35.632812h33.824219c18.304688 0 30.207031-19.261719 22.023438-35.632812zm0 0" fill="#da1c4b"/><path d="m114.027344 54.679688 16.914062-33.824219c2.742188-5.484375 7.027344-9.300781 11.914063-11.46875-11.285157-5.007813-25.800781-1.191407-32.132813 11.46875l-16.910156 33.824219c-8.1875 16.371093 3.71875 35.632812 22.019531 35.632812h20.21875c-18.300781 0-30.207031-19.261719-22.023437-35.632812zm0 0" fill="#bf0443"/><path d="m431.949219 90.3125h-176.09375v300.621094h176.09375c11.773437 0 21.402343-9.628906 21.402343-21.398438v-257.824218c0-11.769532-9.632812-21.398438-21.402343-21.398438zm0 0" fill="#ffd782"/><path d="m255.855469 90.3125h19.082031v300.621094h-19.082031zm0 0" fill="#fdbd40"/><path d="m255.855469 198.9375h197.496093v82.648438h-197.496093zm0 0" fill="#d3843d"/><path d="m255.855469 198.9375h19.082031v82.648438h-19.082031zm0 0" fill="#c65c38"/><path d="m499.09375 389.027344h-486.472656c-3.347656 0-5.867188 3.171875-5.136719 6.519531 4.085937 18.683594 20.359375 32.648437 39.824219 32.648437h417.097656c19.464844 0 35.738281-13.964843 39.824219-32.648437.730469-3.347656-1.792969-6.519531-5.136719-6.519531zm0 0" fill="#d7f7ff"/><path d="m27.484375 395.546875c-.730469-3.347656 1.792969-6.519531 5.136719-6.519531h-20c-3.347656 0-5.867188 3.171875-5.136719 6.519531 4.085937 18.683594 20.359375 32.648437 39.824219 32.648437h20c-19.464844 0-35.738282-13.964843-39.824219-32.648437zm0 0" fill="#b7e9f9"/><path d="m277.878906 20.855469c-9.074218-18.148438-34.96875-18.148438-44.046875 0l-16.910156 33.824219c-8.1875 16.371093 3.71875 35.632812 22.023437 35.632812h33.820313c18.304687 0 30.210937-19.261719 22.023437-35.632812zm0 0" fill="#da1c4b"/><path d="m237.140625 54.679688 16.910156-33.824219c2.742188-5.484375 7.027344-9.300781 11.914063-11.46875-11.28125-5.007813-25.800782-1.191407-32.132813 11.46875l-16.910156 33.824219c-8.183594 16.371093 3.71875 35.632812 22.023437 35.632812h20.21875c-18.304687 0-30.210937-19.261719-22.023437-35.632812zm0 0" fill="#bf0443"/><path d="m400.988281 20.855469c-9.074219-18.148438-34.972656-18.148438-44.046875 0l-16.910156 33.824219c-8.1875 16.371093 3.71875 35.632812 22.019531 35.632812h33.824219c18.304688 0 30.207031-19.261719 22.023438-35.632812zm0 0" fill="#da1c4b"/><path d="m360.246094 54.679688 16.914062-33.824219c2.742188-5.484375 7.027344-9.300781 11.914063-11.46875-11.285157-5.007813-25.800781-1.191407-32.132813 11.46875l-16.910156 33.824219c-8.1875 16.371093 3.71875 35.632812 22.019531 35.632812h20.21875c-18.300781 0-30.207031-19.261719-22.023437-35.632812zm0 0" fill="#bf0443"/><path d="m509.207031 388.484375c-2.441406-3.046875-6.070312-4.792969-9.96875-4.792969h-41.816406c2.273437-4.125 3.574219-8.863281 3.574219-13.898437v-111.410157c0-4.144531-3.359375-7.5-7.503906-7.5-4.140626 0-7.5 3.355469-7.5 7.5v15.960938h-182.492188c0-7.089844 0-60.4375 0-67.652344h66.539062c4.144532 0 7.5-3.355468 7.5-7.5 0-4.140625-3.355468-7.5-7.5-7.5h-66.539062c0-11.457031 0-83.058594 0-93.621094h168.59375c7.664062 0 13.898438 6.234376 13.898438 13.898438v79.722656h-80.949219c-4.144531 0-7.5 3.359375-7.5 7.5 0 4.144532 3.355469 7.5 7.5 7.5h80.949219v16.6875c0 4.144532 3.359374 7.5 7.5 7.5 4.144531 0 7.503906-3.355468 7.503906-7.5v-111.40625c0-15.9375-12.964844-28.902344-28.902344-28.902344h-8.898438c.046876-.078124.101563-.152343.152344-.234374 5.898438-9.539063 6.421875-21.222657 1.40625-31.253907l-16.910156-33.824219c-5.476562-10.949218-16.484375-17.75390575-28.730469-17.75390575-12.246093 0-23.257812 6.80468775-28.730469 17.75390575l-16.914062 33.824219c-5.015625 10.03125-4.488281 21.714844 1.40625 31.253907.050781.078124.105469.152343.15625.234374h-34.949219c.050781-.082031.109375-.15625.15625-.234374 5.898438-9.539063 6.421875-21.222657 1.40625-31.253907l-16.914062-33.824219c-5.476563-10.953124-16.484375-17.757812-28.730469-17.757812s-23.253906 6.804688-28.730469 17.757812l-16.914062 33.824219c-5.015625 10.03125-4.488281 21.710938 1.40625 31.253907.050781.078124.105469.152343.15625.230468h-34.949219c.050781-.078125.109375-.152344.15625-.230468 5.898438-9.542969 6.421875-21.226563 1.40625-31.253907l-16.910156-33.824219c-5.476563-10.953124-16.488282-17.757812-28.730469-17.757812-12.246094 0-23.257813 6.804688-28.730469 17.757812l-16.914062 33.824219c-5.015625 10.03125-4.488282 21.714844 1.40625 31.253907.050781.082031.105468.152343.15625.234374h-8.902344c-15.9375 0-28.898438 12.964844-28.898438 28.898438v257.824219c0 5.035156 1.296876 9.773437 3.570313 13.898437h-41.816406c-3.894531 0-7.527344 1.746094-9.96875 4.792969-2.425781 3.027344-3.328125 6.933594-2.484375 10.707031 4.898437 21.855469 24.726562 37.714844 47.144531 37.714844h14.058594c-1.707031 3.511719-2.671875 7.449219-2.671875 11.609375 0 14.671875 11.9375 26.605469 26.609375 26.605469h341.101562c14.671875 0 26.609375-11.9375 26.609375-26.605469 0-4.160156-.960937-8.097656-2.671875-11.609375h14.058594c22.421875 0 42.246094-15.859375 47.144531-37.714844.847656-3.777344-.058594-7.679687-2.484375-10.707031zm-162.320312-330.195313 16.910156-33.824218c2.964844-5.925782 8.6875-9.460938 15.3125-9.460938s12.351563 3.535156 15.316406 9.460938l16.910157 33.824218c2.675781 5.347657 2.394531 11.574219-.75 16.660157-3.140626 5.085937-8.585938 8.121093-14.5625 8.121093h-33.824219c-5.976563 0-11.421875-3.035156-14.5625-8.121093-3.144531-5.085938-3.421875-11.3125-.75-16.660157zm99.105469 231.054688v80.449219c0 7.664062-6.234376 13.898437-13.898438 13.898437h-168.59375c0-11.023437 0-82.847656 0-94.347656zm-222.21875-231.054688 16.914062-33.824218c2.960938-5.925782 8.6875-9.460938 15.3125-9.460938s12.351562 3.535156 15.3125 9.460938l16.914062 33.824218c5.695313 11.394532-2.597656 24.78125-15.316406 24.78125h-33.820312c-12.742188 0-21.003906-13.40625-15.316406-24.78125zm-123.109376 0 16.910157-33.824218c2.964843-5.925782 8.6875-9.460938 15.316406-9.460938 6.625 0 12.351563 3.535156 15.3125 9.460938l16.910156 33.824218c2.671875 5.347657 2.394531 11.574219-.75 16.660157-3.140625 5.082031-8.585937 8.121093-14.5625 8.121093h-33.824219c-5.976562 0-11.421874-3.035156-14.5625-8.121093-3.144531-5.085938-3.425781-11.3125-.75-16.660157zm-34.65625 53.683594c0-7.667968 6.234376-13.902344 13.898438-13.902344h168.59375v10.972657h-156.933594c-6.582031 0-11.9375 5.355469-11.9375 11.9375v239.800781c0 6.582031 5.355469 11.941406 11.9375 11.941406h156.933594v10.96875h-168.59375c-7.664062 0-13.898438-6.234375-13.898438-13.898437zm28.621094 203.332032v-25.960938h153.871094v25.960938zm153.871094 15.003906v27.410156h-153.871094v-27.410156zm-153.871094-55.964844v-25.960938h153.871094v25.960938zm0-40.964844v-26.6875h153.871094v26.6875zm0-41.6875v-25.960937h153.871094v25.960937zm0-40.960937v-26.6875h153.871094v26.6875zm331.921875 309.390625h-341.101562c-6.398438 0-11.605469-5.207032-11.605469-11.605469s5.207031-11.609375 11.605469-11.609375h341.101562c6.398438 0 11.609375 5.210938 11.609375 11.609375s-5.210937 11.605469-11.609375 11.605469zm37.996094-38.214844c-11.667969 0-406.605469 0-417.09375 0-14.492187 0-27.410156-9.605469-31.75-23.210938h480.59375c-4.339844 13.605469-17.257813 23.210938-31.75 23.210938zm0 0"/><path d="m366.328125 69.65625c4.152344 0 7.5-3.375 7.5-7.5 0-4.863281-4.5-8.25-8.96875-7.351562-3.550781.679687-6.03125 3.84375-6.03125 7.351562 0 4.1875 3.402344 7.5 7.5 7.5zm0 0"/><path d="m385.019531 62.15625c0 4.570312 4.128907 8.265625 8.972657 7.359375 3.660156-.761719 6.039062-3.910156 6.039062-7.359375 0-4.683594-4.292969-8.265625-8.96875-7.351562-3.71875.773437-6.042969 3.972656-6.042969 7.351562zm0 0"/><path d="m379.109375 47.894531c4.132813 0 7.5-3.339843 7.5-7.5 0-4.863281-4.488281-8.25-8.960937-7.351562-3.457032.648437-6.039063 3.777343-6.039063 7.351562 0 4.09375 3.316406 7.5 7.5 7.5zm0 0"/><path d="m243.210938 69.65625c3.492187 0 6.609374-2.402344 7.359374-6.03125.789063-3.84375-1.609374-7.929688-5.890624-8.820312-3.792969-.78125-7.910157 1.554687-8.820313 5.890624-.894531 4.792969 2.746094 8.960938 7.351563 8.960938zm0 0"/><path d="m261.914062 62.15625c0 4.144531 3.375 7.5 7.5 7.5 4.128907 0 7.5-3.359375 7.5-7.5 0-4.847656-4.476562-8.253906-8.960937-7.351562-3.800781.789062-6.039063 4.054687-6.039063 7.351562zm0 0"/><path d="m256.003906 47.894531c4.167969 0 7.5-3.398437 7.5-7.5 0-2.035156-.886718-4.023437-2.199218-5.300781-4.679688-4.675781-12.804688-1.402344-12.804688 5.300781 0 4.121094 3.351562 7.5 7.503906 7.5zm0 0"/><path d="m120.105469 69.65625c4.117187 0 7.5-3.355469 7.5-7.5 0-3.734375-2.746094-6.722656-6.03125-7.351562-4.632813-.957032-8.96875 2.652343-8.96875 7.351562 0 4.214844 3.421875 7.5 7.5 7.5zm0 0"/><path d="m138.804688 62.15625c0 4.128906 3.335937 7.5 7.503906 7.5 4.140625 0 7.5-3.386719 7.5-7.5 0-3.5625-2.59375-6.703125-6.042969-7.351562-4.566406-.953126-8.960937 2.589843-8.960937 7.351562zm0 0"/><path d="m140.386719 40.394531c0-4.734375-4.367188-8.277343-8.960938-7.351562-4.242187.886719-6.679687 4.929687-5.890625 8.820312 1.863282 8.890625 14.851563 7.457031 14.851563-1.46875zm0 0"/></svg>