<svg viewBox="0 -3 512.00148 512" xmlns="http://www.w3.org/2000/svg"><path d="m420.191406 456.445312h-328.675781c-11.394531 0-20.628906 9.316407-20.628906 20.8125 0 11.496094 9.234375 20.8125 20.628906 20.8125h328.675781c11.394532 0 20.632813-9.316406 20.632813-20.8125 0-11.496093-9.238281-20.8125-20.632813-20.8125zm0 0" fill="#b7e9f9"/><path d="m91.203125 477.257812c0-11.496093 9.234375-20.8125 20.628906-20.8125h-20.316406c-11.390625 0-20.628906 9.316407-20.628906 20.8125 0 11.496094 9.238281 20.8125 20.628906 20.8125h20.316406c-11.394531 0-20.628906-9.316406-20.628906-20.8125zm0 0" fill="#87cee9"/><path d="m445.542969 415.550781v-269.402343c0-5.558594-4.507813-10.066407-10.066407-10.066407h-359.242187c-5.558594 0-10.066406 4.507813-10.066406 10.066407v269.402343zm0 0" fill="#c65c38"/><path d="m96.234375 136.082031h-20c-5.558594 0-10.066406 4.507813-10.066406 10.066407v269.402343h20v-269.402343c0-5.5625 4.507812-10.066407 10.066406-10.066407zm0 0" fill="#9c2d20"/><path d="m66.167969 268.113281h344.738281v59.855469h-344.738281zm0 0" fill="#d3843d"/><path d="m66.167969 268.113281h20v59.855469h-20zm0 0" fill="#c65c38"/><path d="m435.476562 136.082031c-12.308593 0-353.398437 0-359.242187 0-5.558594 0-10.066406 4.507813-10.066406 10.066407v29.507812h48.523437c2.800782 0 5.074219 2.269531 5.074219 5.074219v36.617187c0 13.570313 11.105469 25 24.667969 24.742188 13.148437-.25 23.730468-10.988282 23.730468-24.195313v-37.410156c0 13.207031 10.582032 23.945313 23.730469 24.195313 13.5625.257812 24.667969-11.171876 24.667969-24.742188 0-2.363281 1.917969-4.28125 4.28125-4.28125h176.371094c6.210937 0 11.25 5.035156 11.25 11.25v228.644531h37.078125v-269.402343c0-5.558594-4.507813-10.066407-10.066407-10.066407zm0 0" fill="#9c2d20"/><g fill="#8c271f"><path d="m96.234375 136.082031h-20c-5.558594 0-10.066406 4.507813-10.066406 10.066407v29.507812h20v-29.507812c0-5.558594 4.507812-10.066407 10.066406-10.066407zm0 0"/><path d="m139.765625 217.347656v-36.617187c0-2.804688-2.269531-5.078125-5.074219-5.078125h-20c2.800782 0 5.074219 2.273437 5.074219 5.078125v36.617187c0 13.570313 11.105469 25 24.667969 24.738282 3.4375-.0625 6.691406-.851563 9.636718-2.203126-8.425781-3.933593-14.304687-12.664062-14.304687-22.535156zm0 0"/><path d="m417.214844 175.65625h-20c6.210937 0 11.246094 5.035156 11.246094 11.25v228.644531h20.003906v-228.644531c0-6.214844-5.039063-11.25-11.25-11.25zm0 0"/></g><path d="m287.789062 98.640625c0 20.679687-16.761718 37.441406-37.4375 37.441406-20.675781 0-37.441406-16.761719-37.441406-37.441406 0-20.675781 16.765625-37.4375 37.441406-37.4375 20.675782 0 37.4375 16.761719 37.4375 37.4375zm0 0" fill="#da1c4b"/><path d="m232.65625 98.640625c0-17.257813 11.683594-31.78125 27.566406-36.113281-3.144531-.859375-6.453125-1.324219-9.871094-1.324219-20.675781 0-37.441406 16.761719-37.441406 37.4375 0 24.632813 23.433594 42.628906 47.3125 36.113281-15.882812-4.332031-27.566406-18.855468-27.566406-36.113281zm0 0" fill="#bf0443"/><path d="m498.671875 415.234375h-485.632813c-3.613281 0-6.335937 3.367187-5.546874 6.917969 4.414062 19.835937 21.984374 34.660156 42.996093 34.660156h410.730469c21.015625 0 38.585938-14.824219 42.996094-34.660156.792968-3.550782-1.929688-6.917969-5.542969-6.917969zm0 0" fill="#d7f7ff"/><path d="m27.496094 422.152344c-.789063-3.550782 1.933594-6.917969 5.542968-6.917969h-20c-3.609374 0-6.332031 3.367187-5.542968 6.917969 4.410156 19.835937 21.980468 34.660156 42.996094 34.660156h20c-21.015626 0-38.585938-14.824219-42.996094-34.660156zm0 0" fill="#b7e9f9"/><path d="m498.816406 408.308594h-45.628906v-92.507813c0-4.144531-3.359375-7.5-7.5-7.5-4.144531 0-7.5 3.355469-7.5 7.5v92.507813h-22.078125c0-15.109375 0-212.667969 0-221.144532 0-10.339843-8.414063-18.753906-18.75-18.753906h-180.65625c-4.140625 0-7.5 3.359375-7.5 7.5v4.832032c0 9.207031-7.488281 16.695312-16.699219 16.695312-9.207031 0-16.695312-7.488281-16.695312-16.695312 0-4.144532-3.359375-7.5-7.503906-7.5-4.140626 0-7.5 3.355468-7.5 7.5v37.410156c0 9.207031-7.488282 16.695312-16.695313 16.695312s-16.699219-7.488281-16.699219-16.695312v-42.242188c0-4.140625-3.355468-7.5-7.5-7.5h-46.097656v-22.003906c0-1.417969 1.148438-2.566406 2.566406-2.566406h359.242188c1.414062 0 2.566406 1.148437 2.566406 2.566406v134.390625c0 4.144531 3.355469 7.5 7.5 7.5 4.140625 0 7.5-3.355469 7.5-7.5v-134.390625c0-9.6875-7.878906-17.570312-17.566406-17.570312h-153.683594c7.796875-7.949219 12.613281-18.832032 12.613281-30.816407 0-21.980469-16.171875-40.246093-37.242187-43.53125-.445313-5.835937-1.402344-11.386719-2.660156-16.542969 7.300781-2.816406 12.347656-8.410156 14.550781-12.152343 2.105469-3.566407.914062-8.167969-2.652344-10.269531-3.566406-2.101563-8.167969-.914063-10.269531 2.65625-.03125.046874-2.21875 3.566406-6.136719 5.417968-4.628906-12.003906-9.769531-19.722656-10.15625-20.296875-2.320313-3.433593-6.988281-4.332031-10.417969-2.011719-3.429687 2.320313-4.328125 6.984376-2.007812 10.414063.09375.140625 6.097656 9.15625 10.488281 22.664063.011719.042968.027344.085937.042969.132812 1.9375 5.992188 3.546875 12.863281 4.1875 20.242188-20.378906 3.859374-35.839844 21.789062-35.839844 43.277343 0 11.988281 4.816406 22.867188 12.613281 30.816407h-142.671875c-9.6875 0-17.570312 7.882812-17.570312 17.570312v261.902344h-45.625c-4.027344 0-7.777344 1.804687-10.296875 4.949218-2.507813 3.128907-3.441407 7.160157-2.566407 11.058594 5.226563 23.324219 26.386719 40.253906 50.316407 40.253906h16.15625c-2.078125 3.921876-3.261719 8.390626-3.261719 13.128907 0 15.511719 12.621094 28.132812 28.132812 28.132812h328.675782c15.511718 0 28.128906-12.621093 28.128906-28.132812 0-4.738281-1.183594-9.207031-3.261719-13.128907h16.160157c23.925781 0 45.085937-16.929687 50.3125-40.253906.875-3.898437-.058594-7.929687-2.5625-11.058594-2.523438-3.144531-6.277344-4.949218-10.300782-4.949218zm-248.320312-339.347656c16.019531 0 29.054687 13.035156 29.054687 29.058593 0 16.019531-13.035156 29.054688-29.054687 29.054688-16.023438 0-29.058594-13.035157-29.058594-29.054688 0-16.023437 13.035156-29.058593 29.058594-29.058593zm-138.085938 114.453124v34.738282c0 17.476562 14.21875 31.695312 31.695313 31.695312 17.480469 0 31.699219-14.21875 31.699219-31.695312v-10.476563c4.855468 3.019531 10.578124 4.765625 16.699218 4.765625 16.582032 0 30.230469-12.792968 31.589844-29.027344h173.261719c2.070312 0 3.75 1.683594 3.75 3.75v73.707032h-327.292969v-77.457032zm-38.597656 152.3125h158.769531c4.144531 0 7.5-3.355468 7.5-7.5 0-4.144531-3.355469-7.5-7.5-7.5h-158.769531v-44.855468h327.292969v44.855468h-133.523438c-4.140625 0-7.5 3.355469-7.5 7.5 0 4.144532 3.359375 7.5 7.5 7.5h133.523438v72.582032h-327.292969zm359.65625 141.972657c0 7.238281-5.890625 13.128906-13.132812 13.128906h-328.675782c-7.238281 0-13.128906-5.890625-13.128906-13.128906s5.890625-13.128907 13.128906-13.128907h328.675782c7.242187 0 13.132812 5.890626 13.132812 13.128907zm27.894531-28.128907c-15.617187 0-396.199219 0-410.726562 0-16.183594 0-30.578125-10.910156-35.089844-26.261718h480.90625c-4.515625 15.347656-18.910156 26.261718-35.089844 26.261718zm0 0"/></svg>